<svg width="48" height="48" viewBox="0 0 48 48" fill="none" xmlns="http://www.w3.org/2000/svg">
<rect x="7" y="13" width="3" height="14" fill="#2C2B2C"/>
<rect x="10" y="16" width="3" height="3" fill="#2C2B2C"/>
<rect x="34" y="16" width="3" height="3" fill="#2C2B2C"/>
<rect x="37" y="13" width="3" height="14" fill="#2C2B2C"/>
<rect x="10" y="27" width="3" height="8" fill="#2C2B2C"/>
<rect x="34" y="27" width="3" height="9" fill="#2C2B2C"/>
<rect x="32" y="7" width="3" height="17" transform="rotate(90 32 7)" fill="#2C2B2C"/>
<rect x="32" y="40" width="3" height="16" transform="rotate(90 32 40)" fill="#2C2B2C"/>
<rect x="28" y="22" width="3" height="9" transform="rotate(90 28 22)" fill="#2C2B2C"/>
<rect x="28" y="28" width="3" height="6" transform="rotate(90 28 28)" fill="#808080"/>
<rect x="28" y="31" width="6" height="3" transform="rotate(90 28 31)" fill="#636D72"/>
<rect x="28" y="25" width="3" height="7" transform="rotate(90 28 25)" fill="#808080"/>
<rect x="32" y="10" width="3" height="17" transform="rotate(90 32 10)" fill="#6495ED"/>
<rect x="32" y="13" width="3" height="17" transform="rotate(90 32 13)" fill="#0000CD"/>
<rect x="34" y="16" width="3" height="21" transform="rotate(90 34 16)" fill="#0000CD"/>
<rect x="28" y="19" width="3" height="9" transform="rotate(90 28 19)" fill="#0000CD"/>
<rect x="34" y="22" width="3" height="6" transform="rotate(90 34 22)" fill="#0000CD"/>
<rect x="31" y="25" width="6" height="3" transform="rotate(90 31 25)" fill="#0000CD"/>
<rect x="31" y="34" width="3" height="3" transform="rotate(90 31 34)" fill="#0000CD"/>
<rect x="22" y="25" width="3" height="3" transform="rotate(90 22 25)" fill="#0000CD"/>
<rect x="19" y="22" width="3" height="9" transform="rotate(90 19 22)" fill="#A7AAAF"/>
<rect x="19" y="25" width="6" height="3" transform="rotate(90 19 25)" fill="#FEFCFC"/>
<rect x="22" y="31" width="6" height="3" transform="rotate(90 22 31)" fill="#FEFCFC"/>
<rect x="13" y="27" width="3" height="8" transform="rotate(180 13 27)" fill="#A7AAAF"/>
<rect x="16" y="35" width="3" height="10" transform="rotate(180 16 35)" fill="#A7AAAF"/>
<rect x="19" y="40" width="3" height="9" transform="rotate(180 19 40)" fill="#A7AAAF"/>
<rect x="22" y="40" width="3" height="3" transform="rotate(180 22 40)" fill="#A7AAAF"/>
<rect x="25" y="40" width="3" height="9" transform="rotate(180 25 40)" fill="#A7AAAF"/>
<rect x="28" y="40" width="3" height="3" transform="rotate(180 28 40)" fill="#636D72"/>
<rect x="31" y="34" width="3" height="3" transform="rotate(180 31 34)" fill="#636D72"/>
<rect x="34" y="35" width="3" height="7" transform="rotate(180 34 35)" fill="#636D72"/>
<rect x="34" y="28" width="3" height="3" transform="rotate(180 34 28)" fill="#A7AAAF"/>
<rect x="37" y="27" width="3" height="8" transform="rotate(180 37 27)" fill="#636D72"/>
<rect x="31" y="34" width="3" height="3" transform="rotate(180 31 34)" fill="#636D72"/>
<rect x="31" y="40" width="3" height="3" transform="rotate(180 31 40)" fill="#636D72"/>
<rect x="22" y="31" width="3" height="3" transform="rotate(180 22 31)" fill="#A7AAAF"/>
<rect x="15" y="13" width="3" height="5" transform="rotate(90 15 13)" fill="#6495ED"/>
<rect x="37" y="13" width="3" height="5" transform="rotate(90 37 13)" fill="#6495ED"/>
<rect x="15" y="10" width="3" height="5" transform="rotate(90 15 10)" fill="#2C2B2C"/>
<rect x="16" y="40" width="3" height="5" transform="rotate(180 16 40)" fill="#2C2B2C"/>
<rect x="16" y="40" width="3" height="5" transform="rotate(180 16 40)" fill="#2C2B2C"/>
<rect x="34" y="40" width="3" height="5" transform="rotate(180 34 40)" fill="#2C2B2C"/>
<rect x="37" y="10" width="3" height="5" transform="rotate(90 37 10)" fill="#2C2B2C"/>
<rect x="34" y="19" width="3" height="6" transform="rotate(90 34 19)" fill="#2C2B2C"/>
<rect x="19" y="19" width="3" height="6" transform="rotate(90 19 19)" fill="#2C2B2C"/>
</svg>
