<svg width="48" height="48" viewBox="0 0 48 48" fill="none" xmlns="http://www.w3.org/2000/svg">
<rect width="9" height="6" transform="matrix(0 -1 -1 0 41 37)" fill="#7C490F"/>
<rect width="9" height="3" transform="matrix(0 -1 -1 0 35 37)" fill="#2C2B2C"/>
<rect width="3" height="6" transform="matrix(0 -1 -1 0 41 28)" fill="#2C2B2C"/>
<rect width="3" height="6" transform="matrix(0 -1 -1 0 13 33)" fill="#B1AEB1"/>
<rect width="3" height="3" transform="matrix(0 -1 -1 0 16 33)" fill="#292BAA"/>
<rect width="3" height="3" transform="matrix(0 -1 -1 0 24 41)" fill="#9D209D"/>
<rect width="3" height="3" transform="matrix(0 -1 -1 0 7 25)" fill="#2C2B2C"/>
<rect width="3" height="3" transform="matrix(0 -1 -1 0 7 33)" fill="#2C2B2C"/>
<rect width="3" height="9" transform="matrix(0 -1 -1 0 16 30)" fill="#2C2B2C"/>
<rect width="3" height="9" transform="matrix(0 -1 -1 0 16 36)" fill="#2C2B2C"/>
<rect width="3" height="3" transform="matrix(0 -1 -1 0 21 41)" fill="#2C2B2C"/>
<rect width="3" height="3" transform="matrix(0 -1 -1 0 24 38)" fill="#2C2B2C"/>
<rect width="3" height="3" transform="matrix(0 -1 -1 0 27 41)" fill="#2C2B2C"/>
<rect width="3" height="3" transform="matrix(0 -1 -1 0 24 44)" fill="#2C2B2C"/>
<rect width="9" height="3" transform="matrix(0 -1 -1 0 44 37)" fill="#2C2B2C"/>
<rect width="3" height="3" transform="matrix(0 -1 -1 0 29 34)" fill="#939293"/>
<rect width="3" height="3" transform="matrix(0 -1 -1 0 23 22)" fill="#939293"/>
<rect width="3" height="3" transform="matrix(0 -1 -1 0 26 31)" fill="#939293"/>
<rect width="3" height="3" transform="matrix(0 -1 -1 0 23 28)" fill="#939293"/>
<rect width="3" height="3" transform="matrix(0 -1 -1 0 20 25)" fill="#939293"/>
<rect width="3" height="3" transform="matrix(0 -1 -1 0 17 22)" fill="#939293"/>
<rect width="3" height="3" transform="matrix(0 -1 -1 0 26 25)" fill="#939293"/>
<rect width="3" height="3" transform="matrix(0 -1 -1 0 20 19)" fill="#939293"/>
<rect width="3" height="3" transform="matrix(0 -1 -1 0 29 28)" fill="#939293"/>
<rect width="3" height="3" transform="matrix(0 -1 -1 0 29 22)" fill="#939293"/>
<rect width="3" height="3" transform="matrix(0 -1 -1 0 26 19)" fill="#939293"/>
<rect width="3" height="3" transform="matrix(0 -1 -1 0 23 16)" fill="#939293"/>
<rect width="3" height="3" transform="matrix(0 -1 -1 0 20 13)" fill="#939293"/>
<rect width="3" height="3" transform="matrix(0 -1 -1 0 32 37)" fill="#939293"/>
<rect width="3" height="3" transform="matrix(0 -1 -1 0 32 25)" fill="#939293"/>
<rect width="3" height="3" transform="matrix(0 -1 -1 0 35 28)" fill="#939293"/>
<rect width="3" height="3" transform="matrix(0 -1 -1 0 32 31)" fill="#939293"/>
<rect width="3" height="6" transform="matrix(0 -1 -1 0 41 40)" fill="#2C2B2C"/>
<rect width="9" height="6" transform="matrix(0 -1 -1 0 14 16)" fill="#7C490F"/>
<rect width="9" height="3" transform="matrix(0 -1 -1 0 8 16)" fill="#2C2B2C"/>
<rect width="3" height="6" transform="matrix(0 -1 -1 0 14 7)" fill="#2C2B2C"/>
<rect width="9" height="3" transform="matrix(0 -1 -1 0 17 16)" fill="#2C2B2C"/>
<rect width="3" height="6" transform="matrix(0 -1 -1 0 14 19)" fill="#2C2B2C"/>
</svg>
