<svg width="48" height="48" viewBox="0 0 48 48" fill="none" xmlns="http://www.w3.org/2000/svg">
<rect x="5" y="14" width="3" height="3" transform="rotate(-90 5 14)" fill="#2C2B2C"/>
<rect x="8" y="17" width="6" height="9" transform="rotate(-90 8 17)" fill="#3B3B57"/>
<rect x="8" y="17" width="6" height="9" transform="rotate(-90 8 17)" fill="#3B3B57"/>
<rect x="8" y="17" width="6" height="9" transform="rotate(-90 8 17)" fill="#3B3B57"/>
<rect x="8" y="17" width="6" height="9" transform="rotate(-90 8 17)" fill="#3B3B57"/>
<rect x="20" y="26" width="15" height="12" transform="rotate(-90 20 26)" fill="#3B3B57"/>
<rect x="20" y="26" width="15" height="12" transform="rotate(-90 20 26)" fill="#3B3B57"/>
<rect x="20" y="26" width="15" height="12" transform="rotate(-90 20 26)" fill="#3B3B57"/>
<rect x="20" y="26" width="15" height="12" transform="rotate(-90 20 26)" fill="#3B3B57"/>
<rect x="20" y="26" width="15" height="12" transform="rotate(-90 20 26)" fill="#3B3B57"/>
<rect x="20" y="26" width="15" height="12" transform="rotate(-90 20 26)" fill="#3B3B57"/>
<rect x="20" y="26" width="15" height="12" transform="rotate(-90 20 26)" fill="#3B3B57"/>
<rect x="20" y="26" width="15" height="12" transform="rotate(-90 20 26)" fill="#3B3B57"/>
<rect x="26" y="26" width="9" height="12" transform="rotate(-90 26 26)" fill="#3B3B57"/>
<rect x="26" y="26" width="9" height="12" transform="rotate(-90 26 26)" fill="#3B3B57"/>
<rect x="26" y="26" width="9" height="12" transform="rotate(-90 26 26)" fill="#3B3B57"/>
<rect x="26" y="26" width="9" height="12" transform="rotate(-90 26 26)" fill="#3B3B57"/>
<rect x="11" y="20" width="6" height="9" transform="rotate(-90 11 20)" fill="#3B3B57"/>
<rect x="11" y="20" width="6" height="9" transform="rotate(-90 11 20)" fill="#3B3B57"/>
<rect x="11" y="20" width="6" height="9" transform="rotate(-90 11 20)" fill="#3B3B57"/>
<rect x="11" y="20" width="6" height="9" transform="rotate(-90 11 20)" fill="#3B3B57"/>
<rect x="14" y="23" width="6" height="9" transform="rotate(-90 14 23)" fill="#3B3B57"/>
<rect x="14" y="23" width="6" height="9" transform="rotate(-90 14 23)" fill="#3B3B57"/>
<rect x="14" y="23" width="6" height="9" transform="rotate(-90 14 23)" fill="#3B3B57"/>
<rect x="14" y="23" width="6" height="9" transform="rotate(-90 14 23)" fill="#3B3B57"/>
<rect x="17" y="26" width="6" height="9" transform="rotate(-90 17 26)" fill="#3B3B57"/>
<rect x="17" y="26" width="6" height="9" transform="rotate(-90 17 26)" fill="#3B3B57"/>
<rect x="17" y="26" width="6" height="9" transform="rotate(-90 17 26)" fill="#3B3B57"/>
<rect x="17" y="26" width="6" height="9" transform="rotate(-90 17 26)" fill="#3B3B57"/>
<rect x="8" y="20" width="3" height="3" transform="rotate(-90 8 20)" fill="#2C2B2C"/>
<rect x="5" y="17" width="3" height="3" transform="rotate(-90 5 17)" fill="#2C2B2C"/>
<rect x="14" y="26" width="3" height="3" transform="rotate(-90 14 26)" fill="#2C2B2C"/>
<rect x="17" y="29" width="3" height="9" transform="rotate(-90 17 29)" fill="#2C2B2C"/>
<rect x="29" y="29" width="3" height="9" transform="rotate(-90 29 29)" fill="#2C2B2C"/>
<rect x="11" y="23" width="3" height="3" transform="rotate(-90 11 23)" fill="#2C2B2C"/>
<rect x="20" y="17" width="3" height="3" transform="rotate(-90 20 17)" fill="#2C2B2C"/>
<rect x="17" y="14" width="3" height="3" transform="rotate(-90 17 14)" fill="#2C2B2C"/>
<rect x="26" y="26" width="6" height="3" transform="rotate(-90 26 26)" fill="#2C2B2C"/>
<rect x="23" y="20" width="3" height="3" transform="rotate(-90 23 20)" fill="#2C2B2C"/>
<rect x="32" y="17" width="3" height="3" transform="rotate(-90 32 17)" fill="#2C2B2C"/>
<rect x="29" y="14" width="3" height="3" transform="rotate(-90 29 14)" fill="#2C2B2C"/>
<rect x="38" y="26" width="6" height="3" transform="rotate(-90 38 26)" fill="#2C2B2C"/>
<rect x="35" y="20" width="3" height="3" transform="rotate(-90 35 20)" fill="#2C2B2C"/>
<rect x="8" y="11" width="3" height="9" transform="rotate(-90 8 11)" fill="#2C2B2C"/>
<rect x="11" y="17" width="3" height="6" transform="rotate(-90 11 17)" fill="#5A5A74"/>
<rect x="17" y="23" width="3" height="6" transform="rotate(-90 17 23)" fill="#5A5A74"/>
<rect x="26" y="17" width="3" height="6" transform="rotate(-90 26 17)" fill="#5A5A74"/>
<rect x="29" y="23" width="3" height="6" transform="rotate(-90 29 23)" fill="#5A5A74"/>
<rect x="20" y="11" width="3" height="9" transform="rotate(-90 20 11)" fill="#2C2B2C"/>
<rect x="23" y="29" width="3" height="9" fill="#FDAB0C"/>
<rect x="20" y="38" width="11" height="3" fill="#FDAB0C"/>
<rect width="3" height="6" transform="matrix(-1 0 0 1 23 32)" fill="#2C2B2C"/>
<rect width="3" height="6" transform="matrix(-1 0 0 1 29 32)" fill="#2C2B2C"/>
<rect width="3" height="3" transform="matrix(-1 0 0 1 20 38)" fill="#2C2B2C"/>
<rect width="3" height="3" transform="matrix(-1 0 0 1 34 38)" fill="#2C2B2C"/>
</svg>
