<svg width="48" height="48" viewBox="0 0 48 48" fill="none" xmlns="http://www.w3.org/2000/svg">
<rect x="5" y="14" width="3" height="3" transform="rotate(-90 5 14)" fill="#2C2B2C"/>
<rect x="8" y="17" width="6" height="9" transform="rotate(-90 8 17)" fill="#3B3B57"/>
<rect x="8" y="17" width="6" height="9" transform="rotate(-90 8 17)" fill="#3B3B57"/>
<rect x="8" y="17" width="6" height="9" transform="rotate(-90 8 17)" fill="#3B3B57"/>
<rect x="8" y="17" width="6" height="9" transform="rotate(-90 8 17)" fill="#3B3B57"/>
<rect x="20" y="26" width="15" height="12" transform="rotate(-90 20 26)" fill="#3B3B57"/>
<rect x="20" y="26" width="15" height="12" transform="rotate(-90 20 26)" fill="#3B3B57"/>
<rect x="20" y="26" width="15" height="12" transform="rotate(-90 20 26)" fill="#3B3B57"/>
<rect x="20" y="26" width="15" height="12" transform="rotate(-90 20 26)" fill="#3B3B57"/>
<rect x="20" y="26" width="15" height="12" transform="rotate(-90 20 26)" fill="#3B3B57"/>
<rect x="20" y="26" width="15" height="12" transform="rotate(-90 20 26)" fill="#3B3B57"/>
<rect x="20" y="26" width="15" height="12" transform="rotate(-90 20 26)" fill="#3B3B57"/>
<rect x="20" y="26" width="15" height="12" transform="rotate(-90 20 26)" fill="#3B3B57"/>
<rect x="26" y="26" width="9" height="12" transform="rotate(-90 26 26)" fill="#3B3B57"/>
<rect x="26" y="26" width="9" height="12" transform="rotate(-90 26 26)" fill="#3B3B57"/>
<rect x="26" y="26" width="9" height="12" transform="rotate(-90 26 26)" fill="#3B3B57"/>
<rect x="26" y="26" width="9" height="12" transform="rotate(-90 26 26)" fill="#3B3B57"/>
<rect x="11" y="20" width="6" height="9" transform="rotate(-90 11 20)" fill="#3B3B57"/>
<rect x="11" y="20" width="6" height="9" transform="rotate(-90 11 20)" fill="#3B3B57"/>
<rect x="11" y="20" width="6" height="9" transform="rotate(-90 11 20)" fill="#3B3B57"/>
<rect x="11" y="20" width="6" height="9" transform="rotate(-90 11 20)" fill="#3B3B57"/>
<rect x="14" y="23" width="6" height="9" transform="rotate(-90 14 23)" fill="#3B3B57"/>
<rect x="14" y="23" width="6" height="9" transform="rotate(-90 14 23)" fill="#3B3B57"/>
<rect x="14" y="23" width="6" height="9" transform="rotate(-90 14 23)" fill="#3B3B57"/>
<rect x="14" y="23" width="6" height="9" transform="rotate(-90 14 23)" fill="#3B3B57"/>
<rect x="17" y="26" width="6" height="9" transform="rotate(-90 17 26)" fill="#3B3B57"/>
<rect x="17" y="26" width="6" height="9" transform="rotate(-90 17 26)" fill="#3B3B57"/>
<rect x="17" y="26" width="6" height="9" transform="rotate(-90 17 26)" fill="#3B3B57"/>
<rect x="17" y="26" width="6" height="9" transform="rotate(-90 17 26)" fill="#3B3B57"/>
<rect x="8" y="20" width="3" height="3" transform="rotate(-90 8 20)" fill="#2C2B2C"/>
<rect x="5" y="17" width="3" height="3" transform="rotate(-90 5 17)" fill="#2C2B2C"/>
<rect x="14" y="26" width="3" height="3" transform="rotate(-90 14 26)" fill="#2C2B2C"/>
<rect x="17" y="29" width="3" height="9" transform="rotate(-90 17 29)" fill="#2C2B2C"/>
<rect x="29" y="29" width="3" height="9" transform="rotate(-90 29 29)" fill="#2C2B2C"/>
<rect x="11" y="23" width="3" height="3" transform="rotate(-90 11 23)" fill="#2C2B2C"/>
<rect x="20" y="17" width="3" height="3" transform="rotate(-90 20 17)" fill="#2C2B2C"/>
<rect x="17" y="14" width="3" height="3" transform="rotate(-90 17 14)" fill="#2C2B2C"/>
<rect x="26" y="26" width="6" height="3" transform="rotate(-90 26 26)" fill="#2C2B2C"/>
<rect x="23" y="20" width="3" height="3" transform="rotate(-90 23 20)" fill="#2C2B2C"/>
<rect x="32" y="17" width="3" height="3" transform="rotate(-90 32 17)" fill="#2C2B2C"/>
<rect x="29" y="14" width="3" height="3" transform="rotate(-90 29 14)" fill="#2C2B2C"/>
<rect x="38" y="26" width="6" height="3" transform="rotate(-90 38 26)" fill="#2C2B2C"/>
<rect x="35" y="20" width="3" height="3" transform="rotate(-90 35 20)" fill="#2C2B2C"/>
<rect x="8" y="11" width="3" height="9" transform="rotate(-90 8 11)" fill="#2C2B2C"/>
<rect x="11" y="17" width="3" height="6" transform="rotate(-90 11 17)" fill="#5A5A74"/>
<rect x="17" y="23" width="3" height="6" transform="rotate(-90 17 23)" fill="#5A5A74"/>
<rect x="26" y="17" width="3" height="6" transform="rotate(-90 26 17)" fill="#5A5A74"/>
<rect x="29" y="23" width="3" height="6" transform="rotate(-90 29 23)" fill="#5A5A74"/>
<rect x="20" y="11" width="3" height="9" transform="rotate(-90 20 11)" fill="#2C2B2C"/>
<rect x="23" y="29" width="3" height="9" fill="#FDAB0C"/>
<rect x="20" y="38" width="11" height="3" fill="#FDAB0C"/>
<rect width="3" height="6" transform="matrix(-1 0 0 1 23 32)" fill="#2C2B2C"/>
<rect width="3" height="6" transform="matrix(-1 0 0 1 29 32)" fill="#2C2B2C"/>
<rect width="3" height="3" transform="matrix(-1 0 0 1 20 38)" fill="#2C2B2C"/>
<rect width="3" height="3" transform="matrix(-1 0 0 1 34 38)" fill="#2C2B2C"/>
<mask id="path-35-outside-1_43_2101" maskUnits="userSpaceOnUse" x="18" y="26" width="28" height="15" fill="black">
<rect fill="white" x="18" y="26" width="28" height="15"/>
<path d="M20.96 38V36.44H23.168V30.884L20.936 32.54V30.68L22.988 29.24H24.968V36.44H26.72V38H20.96ZM30.8073 38.12C30.2153 38.12 29.7033 38.012 29.2713 37.796C28.8393 37.572 28.5033 37.264 28.2633 36.872C28.0313 36.472 27.9153 36.008 27.9153 35.48V31.76C27.9153 31.232 28.0313 30.772 28.2633 30.38C28.5033 29.98 28.8393 29.672 29.2713 29.456C29.7033 29.232 30.2113 29.12 30.7953 29.12C31.3873 29.12 31.8953 29.232 32.3193 29.456C32.7513 29.672 33.0833 29.98 33.3153 30.38C33.5553 30.772 33.6753 31.232 33.6753 31.76V35.48C33.6753 36.008 33.5553 36.472 33.3153 36.872C33.0833 37.264 32.7513 37.572 32.3193 37.796C31.8953 38.012 31.3913 38.12 30.8073 38.12ZM30.7953 36.56C31.1713 36.56 31.4633 36.464 31.6713 36.272C31.8873 36.08 31.9953 35.816 31.9953 35.48V31.76C31.9953 31.424 31.8873 31.16 31.6713 30.968C31.4633 30.776 31.1713 30.68 30.7953 30.68C30.4193 30.68 30.1233 30.776 29.9073 30.968C29.6993 31.16 29.5953 31.424 29.5953 31.76V35.48C29.5953 35.816 29.7033 36.08 29.9193 36.272C30.1353 36.464 30.4273 36.56 30.7953 36.56ZM30.7953 34.448C30.5473 34.448 30.3433 34.368 30.1833 34.208C30.0313 34.048 29.9553 33.84 29.9553 33.584C29.9553 33.328 30.0313 33.124 30.1833 32.972C30.3433 32.82 30.5473 32.744 30.7953 32.744C31.0513 32.744 31.2553 32.82 31.4073 32.972C31.5593 33.124 31.6353 33.328 31.6353 33.584C31.6353 33.84 31.5593 34.048 31.4073 34.208C31.2553 34.368 31.0513 34.448 30.7953 34.448ZM34.2106 38L40.5466 29.24H41.7706L35.4346 38H34.2106ZM39.6706 38.06C39.1506 38.06 38.7186 37.912 38.3746 37.616C38.0386 37.32 37.8706 36.928 37.8706 36.44V35.66C37.8706 35.172 38.0386 34.78 38.3746 34.484C38.7186 34.188 39.1506 34.04 39.6706 34.04C40.1906 34.04 40.6186 34.188 40.9546 34.484C41.2986 34.78 41.4706 35.172 41.4706 35.66V36.44C41.4706 36.928 41.2986 37.32 40.9546 37.616C40.6186 37.912 40.1906 38.06 39.6706 38.06ZM39.6706 37.052C40.0786 37.052 40.2826 36.848 40.2826 36.44V35.66C40.2826 35.244 40.0786 35.036 39.6706 35.036C39.2626 35.036 39.0586 35.244 39.0586 35.66V36.44C39.0586 36.848 39.2626 37.052 39.6706 37.052ZM36.3106 33.2C35.8066 33.2 35.3786 33.056 35.0266 32.768C34.6826 32.48 34.5106 32.084 34.5106 31.58V30.8C34.5106 30.296 34.6826 29.9 35.0266 29.612C35.3786 29.324 35.8066 29.18 36.3106 29.18C36.8146 29.18 37.2386 29.324 37.5826 29.612C37.9346 29.9 38.1106 30.296 38.1106 30.8V31.58C38.1106 32.084 37.9346 32.48 37.5826 32.768C37.2386 33.056 36.8146 33.2 36.3106 33.2ZM36.3106 32.204C36.7186 32.204 36.9226 31.996 36.9226 31.58V30.8C36.9226 30.384 36.7186 30.176 36.3106 30.176C36.1106 30.176 35.9586 30.228 35.8546 30.332C35.7506 30.428 35.6986 30.584 35.6986 30.8V31.58C35.6986 31.796 35.7506 31.956 35.8546 32.06C35.9586 32.156 36.1106 32.204 36.3106 32.204Z"/>
</mask>
<path d="M20.96 38V36.44H23.168V30.884L20.936 32.54V30.68L22.988 29.24H24.968V36.44H26.72V38H20.96ZM30.8073 38.12C30.2153 38.12 29.7033 38.012 29.2713 37.796C28.8393 37.572 28.5033 37.264 28.2633 36.872C28.0313 36.472 27.9153 36.008 27.9153 35.48V31.76C27.9153 31.232 28.0313 30.772 28.2633 30.38C28.5033 29.98 28.8393 29.672 29.2713 29.456C29.7033 29.232 30.2113 29.12 30.7953 29.12C31.3873 29.12 31.8953 29.232 32.3193 29.456C32.7513 29.672 33.0833 29.98 33.3153 30.38C33.5553 30.772 33.6753 31.232 33.6753 31.76V35.48C33.6753 36.008 33.5553 36.472 33.3153 36.872C33.0833 37.264 32.7513 37.572 32.3193 37.796C31.8953 38.012 31.3913 38.12 30.8073 38.12ZM30.7953 36.56C31.1713 36.56 31.4633 36.464 31.6713 36.272C31.8873 36.08 31.9953 35.816 31.9953 35.48V31.76C31.9953 31.424 31.8873 31.16 31.6713 30.968C31.4633 30.776 31.1713 30.68 30.7953 30.68C30.4193 30.68 30.1233 30.776 29.9073 30.968C29.6993 31.16 29.5953 31.424 29.5953 31.76V35.48C29.5953 35.816 29.7033 36.08 29.9193 36.272C30.1353 36.464 30.4273 36.56 30.7953 36.56ZM30.7953 34.448C30.5473 34.448 30.3433 34.368 30.1833 34.208C30.0313 34.048 29.9553 33.84 29.9553 33.584C29.9553 33.328 30.0313 33.124 30.1833 32.972C30.3433 32.82 30.5473 32.744 30.7953 32.744C31.0513 32.744 31.2553 32.82 31.4073 32.972C31.5593 33.124 31.6353 33.328 31.6353 33.584C31.6353 33.84 31.5593 34.048 31.4073 34.208C31.2553 34.368 31.0513 34.448 30.7953 34.448ZM34.2106 38L40.5466 29.24H41.7706L35.4346 38H34.2106ZM39.6706 38.06C39.1506 38.06 38.7186 37.912 38.3746 37.616C38.0386 37.32 37.8706 36.928 37.8706 36.44V35.66C37.8706 35.172 38.0386 34.78 38.3746 34.484C38.7186 34.188 39.1506 34.04 39.6706 34.04C40.1906 34.04 40.6186 34.188 40.9546 34.484C41.2986 34.78 41.4706 35.172 41.4706 35.66V36.44C41.4706 36.928 41.2986 37.32 40.9546 37.616C40.6186 37.912 40.1906 38.06 39.6706 38.06ZM39.6706 37.052C40.0786 37.052 40.2826 36.848 40.2826 36.44V35.66C40.2826 35.244 40.0786 35.036 39.6706 35.036C39.2626 35.036 39.0586 35.244 39.0586 35.66V36.44C39.0586 36.848 39.2626 37.052 39.6706 37.052ZM36.3106 33.2C35.8066 33.2 35.3786 33.056 35.0266 32.768C34.6826 32.48 34.5106 32.084 34.5106 31.58V30.8C34.5106 30.296 34.6826 29.9 35.0266 29.612C35.3786 29.324 35.8066 29.18 36.3106 29.18C36.8146 29.18 37.2386 29.324 37.5826 29.612C37.9346 29.9 38.1106 30.296 38.1106 30.8V31.58C38.1106 32.084 37.9346 32.48 37.5826 32.768C37.2386 33.056 36.8146 33.2 36.3106 33.2ZM36.3106 32.204C36.7186 32.204 36.9226 31.996 36.9226 31.58V30.8C36.9226 30.384 36.7186 30.176 36.3106 30.176C36.1106 30.176 35.9586 30.228 35.8546 30.332C35.7506 30.428 35.6986 30.584 35.6986 30.8V31.58C35.6986 31.796 35.7506 31.956 35.8546 32.06C35.9586 32.156 36.1106 32.204 36.3106 32.204Z" fill="white"/>
<path d="M20.96 38H18.96V40H20.96V38ZM20.96 36.44V34.44H18.96V36.44H20.96ZM23.168 36.44V38.44H25.168V36.44H23.168ZM23.168 30.884H25.168V26.9098L21.9763 29.2778L23.168 30.884ZM20.936 32.54H18.936V36.5142L22.1277 34.1462L20.936 32.54ZM20.936 30.68L19.7871 29.0429L18.936 29.6402V30.68H20.936ZM22.988 29.24V27.24H22.3563L21.8391 27.6029L22.988 29.24ZM24.968 29.24H26.968V27.24H24.968V29.24ZM24.968 36.44H22.968V38.44H24.968V36.44ZM26.72 36.44H28.72V34.44H26.72V36.44ZM26.72 38V40H28.72V38H26.72ZM22.96 38V36.44H18.96V38H22.96ZM20.96 38.44H23.168V34.44H20.96V38.44ZM25.168 36.44V30.884H21.168V36.44H25.168ZM21.9763 29.2778L19.7443 30.9338L22.1277 34.1462L24.3597 32.4902L21.9763 29.2778ZM22.936 32.54V30.68H18.936V32.54H22.936ZM22.0849 32.3171L24.1369 30.8771L21.8391 27.6029L19.7871 29.0429L22.0849 32.3171ZM22.988 31.24H24.968V27.24H22.988V31.24ZM22.968 29.24V36.44H26.968V29.24H22.968ZM24.968 38.44H26.72V34.44H24.968V38.44ZM24.72 36.44V38H28.72V36.44H24.72ZM26.72 36H20.96V40H26.72V36ZM29.2713 37.796L28.3507 39.5715L28.3637 39.5783L28.3769 39.5849L29.2713 37.796ZM28.2633 36.872L26.5332 37.8754L26.5452 37.896L26.5576 37.9163L28.2633 36.872ZM28.2633 30.38L26.5483 29.351L26.5422 29.3614L28.2633 30.38ZM29.2713 29.456L30.1657 31.2449L30.1789 31.2383L30.1919 31.2315L29.2713 29.456ZM32.3193 29.456L31.3851 31.2244L31.4049 31.2348L31.4249 31.2449L32.3193 29.456ZM33.3153 30.38L31.5853 31.3834L31.5972 31.404L31.6096 31.4243L33.3153 30.38ZM33.3153 36.872L31.6003 35.843L31.5942 35.8534L33.3153 36.872ZM32.3193 37.796L33.2272 39.5781L33.2336 39.5748L33.2399 39.5715L32.3193 37.796ZM31.6713 36.272L30.3426 34.7772L30.3286 34.7897L30.3148 34.8024L31.6713 36.272ZM31.6713 30.968L30.3148 32.4376L30.3286 32.4503L30.3426 32.4628L31.6713 30.968ZM29.9073 30.968L28.5786 29.4732L28.5646 29.4857L28.5508 29.4984L29.9073 30.968ZM29.9193 36.272L31.248 34.7772V34.7772L29.9193 36.272ZM30.1833 34.208L28.7333 35.5855L28.751 35.6041L28.7691 35.6222L30.1833 34.208ZM30.1833 32.972L28.8058 31.522L28.7872 31.5397L28.7691 31.5578L30.1833 32.972ZM31.4073 32.972L32.8215 31.5578L32.8215 31.5578L31.4073 32.972ZM30.8073 36.12C30.4569 36.12 30.2644 36.0565 30.1657 36.0071L28.3769 39.5849C29.1423 39.9675 29.9737 40.12 30.8073 40.12V36.12ZM30.1919 36.0205C30.0636 35.9539 30.0075 35.8905 29.969 35.8277L26.5576 37.9163C26.9991 38.6375 27.6151 39.1901 28.3507 39.5715L30.1919 36.0205ZM29.9934 35.8686C29.9621 35.8146 29.9153 35.7064 29.9153 35.48H25.9153C25.9153 36.3096 26.1006 37.1294 26.5332 37.8754L29.9934 35.8686ZM29.9153 35.48V31.76H25.9153V35.48H29.9153ZM29.9153 31.76C29.9153 31.5326 29.9624 31.436 29.9845 31.3986L26.5422 29.3614C26.1003 30.108 25.9153 30.9314 25.9153 31.76H29.9153ZM29.9783 31.409C30.0154 31.3471 30.0613 31.2971 30.1657 31.2449L28.3769 27.6671C27.6174 28.0469 26.9912 28.6129 26.5483 29.351L29.9783 31.409ZM30.1919 31.2315C30.2879 31.1818 30.4681 31.12 30.7953 31.12V27.12C29.9545 27.12 29.1187 27.2822 28.3507 27.6805L30.1919 31.2315ZM30.7953 31.12C31.1369 31.12 31.3089 31.1841 31.3851 31.2244L33.2536 27.6876C32.4818 27.2799 31.6377 27.12 30.7953 27.12V31.12ZM31.4249 31.2449C31.524 31.2944 31.5582 31.3367 31.5853 31.3834L35.0454 29.3766C34.6085 28.6233 33.9786 28.0496 33.2137 27.6671L31.4249 31.2449ZM31.6096 31.4243C31.6299 31.4575 31.6753 31.5447 31.6753 31.76H35.6753C35.6753 30.9193 35.4807 30.0865 35.021 29.3357L31.6096 31.4243ZM31.6753 31.76V35.48H35.6753V31.76H31.6753ZM31.6753 35.48C31.6753 35.6944 31.6302 35.7932 31.6003 35.843L35.0303 37.901C35.4804 37.1508 35.6753 36.3216 35.6753 35.48H31.6753ZM31.5942 35.8534C31.566 35.9009 31.5219 35.9566 31.3987 36.0205L33.2399 39.5715C33.9807 39.1874 34.6006 38.6271 35.0365 37.8906L31.5942 35.8534ZM31.4115 36.0139C31.3254 36.0577 31.1463 36.12 30.8073 36.12V40.12C31.6363 40.12 32.4652 39.9663 33.2272 39.5781L31.4115 36.0139ZM30.7953 38.56C31.5054 38.56 32.3428 38.374 33.0279 37.7416L30.3148 34.8024C30.4387 34.688 30.5694 34.6217 30.6717 34.588C30.7664 34.5569 30.8167 34.56 30.7953 34.56V38.56ZM33 37.7668C33.714 37.1322 33.9953 36.2849 33.9953 35.48H29.9953C29.9953 35.4338 30.003 35.3199 30.0632 35.1727C30.1264 35.0184 30.2256 34.8812 30.3426 34.7772L33 37.7668ZM33.9953 35.48V31.76H29.9953V35.48H33.9953ZM33.9953 31.76C33.9953 30.9551 33.714 30.1078 33 29.4732L30.3426 32.4628C30.2256 32.3588 30.1264 32.2216 30.0632 32.0673C30.003 31.9201 29.9953 31.8062 29.9953 31.76H33.9953ZM33.0279 29.4984C32.3428 28.866 31.5054 28.68 30.7953 28.68V32.68C30.8167 32.68 30.7664 32.6831 30.6717 32.652C30.5694 32.6183 30.4387 32.552 30.3148 32.4376L33.0279 29.4984ZM30.7953 28.68C30.0805 28.68 29.2597 28.8678 28.5786 29.4732L31.236 32.4628C31.122 32.5642 31.0027 32.6238 30.9083 32.6544C30.8205 32.6829 30.7747 32.68 30.7953 32.68V28.68ZM28.5508 29.4984C27.856 30.1397 27.5953 30.9794 27.5953 31.76H31.5953C31.5953 31.7976 31.5893 31.9029 31.5341 32.043C31.476 32.1907 31.3819 32.3287 31.2639 32.4376L28.5508 29.4984ZM27.5953 31.76V35.48H31.5953V31.76H27.5953ZM27.5953 35.48C27.5953 36.2849 27.8766 37.1322 28.5906 37.7668L31.248 34.7772C31.365 34.8812 31.4643 35.0184 31.5274 35.1727C31.5876 35.3199 31.5953 35.4338 31.5953 35.48H27.5953ZM28.5906 37.7668C29.2642 38.3656 30.0756 38.56 30.7953 38.56V34.56C30.7829 34.56 30.8341 34.5582 30.925 34.588C31.0221 34.62 31.1387 34.68 31.248 34.7772L28.5906 37.7668ZM30.7953 32.448C30.8885 32.448 31.0272 32.4636 31.1865 32.5261C31.3493 32.5899 31.4893 32.6855 31.5975 32.7938L28.7691 35.6222C29.342 36.1951 30.0729 36.448 30.7953 36.448V32.448ZM31.6333 32.8305C31.7466 32.9498 31.8352 33.0932 31.8908 33.2456C31.9447 33.3929 31.9553 33.5138 31.9553 33.584H27.9553C27.9553 34.2647 28.1719 34.9945 28.7333 35.5855L31.6333 32.8305ZM31.9553 33.584C31.9553 33.6533 31.9449 33.7803 31.8865 33.9372C31.8256 34.1006 31.7271 34.2567 31.5975 34.3862L28.7691 31.5578C28.1716 32.1553 27.9553 32.9062 27.9553 33.584H31.9553ZM31.5608 34.422C31.4481 34.5291 31.3088 34.6177 31.1545 34.6752C31.0043 34.7311 30.8769 34.744 30.7953 34.744V30.744C30.1034 30.744 29.3845 30.9722 28.8058 31.522L31.5608 34.422ZM30.7953 34.744C30.726 34.744 30.599 34.7336 30.4421 34.6752C30.2787 34.6143 30.1227 34.5158 29.9931 34.3862L32.8215 31.5578C32.224 30.9603 31.4731 30.744 30.7953 30.744V34.744ZM29.9931 34.3862C29.8635 34.2567 29.765 34.1006 29.7041 33.9372C29.6457 33.7803 29.6353 33.6533 29.6353 33.584H33.6353C33.6353 32.9062 33.419 32.1553 32.8215 31.5578L29.9931 34.3862ZM29.6353 33.584C29.6353 33.5138 29.646 33.3929 29.6998 33.2456C29.7555 33.0932 29.844 32.9498 29.9573 32.8305L32.8573 35.5855C33.4187 34.9945 33.6353 34.2647 33.6353 33.584H29.6353ZM29.9573 32.8305C30.0814 32.6999 30.2376 32.5937 30.4101 32.5261C30.5764 32.4609 30.7148 32.448 30.7953 32.448V36.448C31.5039 36.448 32.2665 36.2074 32.8573 35.5855L29.9573 32.8305ZM34.2106 38L32.5901 36.8279L30.2957 40H34.2106V38ZM40.5466 29.24V27.24H39.5249L38.9261 28.0679L40.5466 29.24ZM41.7706 29.24L43.3912 30.4121L45.6855 27.24H41.7706V29.24ZM35.4346 38V40H36.4564L37.0552 39.1721L35.4346 38ZM38.3746 37.616L37.0526 39.1167L37.0613 39.1244L37.0701 39.132L38.3746 37.616ZM38.3746 34.484L37.0701 32.968L37.0613 32.9756L37.0526 32.9833L38.3746 34.484ZM40.9546 34.484L39.6326 35.9847L39.6413 35.9924L39.6501 36L40.9546 34.484ZM40.9546 37.616L39.6501 36.1L39.6413 36.1076L39.6326 36.1153L40.9546 37.616ZM35.0266 32.768L33.7428 34.3015L33.7514 34.3088L33.7601 34.3159L35.0266 32.768ZM35.0266 29.612L33.7601 28.0641L33.7514 28.0712L33.7428 28.0785L35.0266 29.612ZM37.5826 29.612L36.2988 31.1455L36.3074 31.1528L36.3161 31.1599L37.5826 29.612ZM37.5826 32.768L36.3161 31.2201L36.3074 31.2272L36.2988 31.2345L37.5826 32.768ZM35.8546 30.332L37.2112 31.8016L37.2406 31.7745L37.2688 31.7462L35.8546 30.332ZM35.8546 32.06L34.4404 33.4742L34.4687 33.5025L34.4981 33.5296L35.8546 32.06ZM35.8312 39.1721L42.1672 30.4121L38.9261 28.0679L32.5901 36.8279L35.8312 39.1721ZM40.5466 31.24H41.7706V27.24H40.5466V31.24ZM40.1501 28.0679L33.8141 36.8279L37.0552 39.1721L43.3912 30.4121L40.1501 28.0679ZM35.4346 36H34.2106V40H35.4346V36ZM39.6706 36.06C39.6354 36.06 39.6141 36.0575 39.6044 36.056C39.595 36.0545 39.596 36.0539 39.6048 36.057C39.6139 36.0601 39.6272 36.0656 39.6424 36.0743C39.6576 36.083 39.6701 36.0922 39.6791 36.1L37.0701 39.132C37.8295 39.7854 38.746 40.06 39.6706 40.06V36.06ZM39.6967 36.1153C39.7402 36.1536 39.7961 36.2215 39.8349 36.3122C39.8719 36.3985 39.8706 36.452 39.8706 36.44H35.8706C35.8706 37.4444 36.2439 38.4043 37.0526 39.1167L39.6967 36.1153ZM39.8706 36.44V35.66H35.8706V36.44H39.8706ZM39.8706 35.66C39.8706 35.648 39.8719 35.7015 39.8349 35.7878C39.7961 35.8785 39.7402 35.9464 39.6967 35.9847L37.0526 32.9833C36.2439 33.6957 35.8706 34.6556 35.8706 35.66H39.8706ZM39.6791 36C39.6701 36.0078 39.6576 36.017 39.6424 36.0257C39.6272 36.0344 39.6139 36.0399 39.6048 36.043C39.596 36.0461 39.595 36.0455 39.6044 36.044C39.6141 36.0425 39.6354 36.04 39.6706 36.04V32.04C38.746 32.04 37.8295 32.3146 37.0701 32.968L39.6791 36ZM39.6706 36.04C39.7406 36.04 39.7529 36.0498 39.728 36.0412C39.716 36.037 39.6993 36.0299 39.6805 36.0189C39.6615 36.0079 39.6452 35.9959 39.6326 35.9847L42.2767 32.9833C41.5174 32.3144 40.5941 32.04 39.6706 32.04V36.04ZM39.6501 36C39.6094 35.9649 39.5515 35.8979 39.5102 35.8036C39.4705 35.7132 39.4706 35.654 39.4706 35.66H43.4706C43.4706 34.6392 43.081 33.6752 42.2591 32.968L39.6501 36ZM39.4706 35.66V36.44H43.4706V35.66H39.4706ZM39.4706 36.44C39.4706 36.446 39.4705 36.3868 39.5102 36.2964C39.5515 36.2021 39.6094 36.1351 39.6501 36.1L42.2591 39.132C43.081 38.4248 43.4706 37.4608 43.4706 36.44H39.4706ZM39.6326 36.1153C39.6452 36.1041 39.6615 36.0921 39.6805 36.0811C39.6993 36.0701 39.716 36.063 39.728 36.0588C39.7529 36.0502 39.7406 36.06 39.6706 36.06V40.06C40.5941 40.06 41.5174 39.7856 42.2767 39.1167L39.6326 36.1153ZM39.6706 39.052C40.1829 39.052 40.9345 38.9226 41.5438 38.3132C42.1532 37.7039 42.2826 36.9523 42.2826 36.44H38.2826C38.2826 36.3357 38.3101 35.8901 38.7154 35.4848C39.1208 35.0794 39.5663 35.052 39.6706 35.052V39.052ZM42.2826 36.44V35.66H38.2826V36.44H42.2826ZM42.2826 35.66C42.2826 35.1534 42.1583 34.4042 41.5575 33.7916C40.9497 33.1718 40.1929 33.036 39.6706 33.036V37.036C39.5564 37.036 39.1056 37.0042 38.7017 36.5924C38.3049 36.1878 38.2826 35.7506 38.2826 35.66H42.2826ZM39.6706 33.036C39.1484 33.036 38.3916 33.1718 37.7837 33.7916C37.1829 34.4042 37.0586 35.1534 37.0586 35.66H41.0586C41.0586 35.7506 41.0363 36.1878 40.6395 36.5924C40.2357 37.0042 39.7849 37.036 39.6706 37.036V33.036ZM37.0586 35.66V36.44H41.0586V35.66H37.0586ZM37.0586 36.44C37.0586 36.9523 37.1881 37.7039 37.7974 38.3132C38.4068 38.9226 39.1583 39.052 39.6706 39.052V35.052C39.7749 35.052 40.2205 35.0794 40.6258 35.4848C41.0312 35.8901 41.0586 36.3357 41.0586 36.44H37.0586ZM36.3106 31.2C36.2799 31.2 36.2611 31.1978 36.2523 31.1965C36.2437 31.1951 36.2435 31.1944 36.2494 31.1964C36.2555 31.1985 36.2642 31.2021 36.2739 31.2074C36.2835 31.2127 36.2901 31.2176 36.2931 31.2201L33.7601 34.3159C34.5086 34.9283 35.3981 35.2 36.3106 35.2V31.2ZM36.3105 31.2345C36.3671 31.2819 36.4314 31.3599 36.4741 31.4582C36.514 31.5502 36.5106 31.6033 36.5106 31.58H32.5106C32.5106 32.5938 32.8854 33.5838 33.7428 34.3015L36.3105 31.2345ZM36.5106 31.58V30.8H32.5106V31.58H36.5106ZM36.5106 30.8C36.5106 30.7767 36.514 30.8298 36.4741 30.9218C36.4314 31.0201 36.3671 31.0981 36.3105 31.1455L33.7428 28.0785C32.8854 28.7962 32.5106 29.7862 32.5106 30.8H36.5106ZM36.2931 31.1599C36.2901 31.1624 36.2835 31.1673 36.2739 31.1726C36.2642 31.1779 36.2555 31.1815 36.2494 31.1836C36.2435 31.1856 36.2437 31.1849 36.2523 31.1835C36.2611 31.1822 36.2799 31.18 36.3106 31.18V27.18C35.3981 27.18 34.5086 27.4517 33.7601 28.0641L36.2931 31.1599ZM36.3106 31.18C36.3414 31.18 36.3595 31.1822 36.367 31.1833C36.3741 31.1845 36.3722 31.1847 36.3635 31.1818C36.3545 31.1787 36.3424 31.1736 36.3291 31.1662C36.3158 31.1587 36.3055 31.1511 36.2988 31.1455L38.8665 28.0785C38.118 27.4518 37.2224 27.18 36.3106 27.18V31.18ZM36.3161 31.1599C36.2625 31.116 36.1963 31.0392 36.151 30.9373C36.1083 30.8412 36.1106 30.7826 36.1106 30.8H40.1106C40.1106 29.7697 39.7195 28.7762 38.8491 28.0641L36.3161 31.1599ZM36.1106 30.8V31.58H40.1106V30.8H36.1106ZM36.1106 31.58C36.1106 31.5974 36.1083 31.5388 36.151 31.4427C36.1963 31.3408 36.2625 31.264 36.3161 31.2201L38.8491 34.3159C39.7195 33.6038 40.1106 32.6103 40.1106 31.58H36.1106ZM36.2988 31.2345C36.3055 31.2289 36.3158 31.2213 36.3291 31.2138C36.3424 31.2064 36.3545 31.2013 36.3635 31.1982C36.3722 31.1953 36.3741 31.1955 36.367 31.1967C36.3595 31.1978 36.3414 31.2 36.3106 31.2V35.2C37.2224 35.2 38.118 34.9282 38.8665 34.3015L36.2988 31.2345ZM36.3106 34.204C36.8329 34.204 37.5897 34.0682 38.1975 33.4484C38.7983 32.8358 38.9226 32.0866 38.9226 31.58H34.9226C34.9226 31.4894 34.9449 31.0522 35.3417 30.6476C35.7456 30.2358 36.1964 30.204 36.3106 30.204V34.204ZM38.9226 31.58V30.8H34.9226V31.58H38.9226ZM38.9226 30.8C38.9226 30.2934 38.7983 29.5442 38.1975 28.9316C37.5897 28.3118 36.8329 28.176 36.3106 28.176V32.176C36.1964 32.176 35.7456 32.1442 35.3417 31.7324C34.9449 31.3278 34.9226 30.8906 34.9226 30.8H38.9226ZM36.3106 28.176C35.776 28.176 35.0383 28.3199 34.4404 28.9178L37.2688 31.7462C36.8789 32.1361 36.4453 32.176 36.3106 32.176V28.176ZM34.4981 28.8624C33.8098 29.4977 33.6986 30.3176 33.6986 30.8H37.6986C37.6986 30.8504 37.6914 31.3583 37.2112 31.8016L34.4981 28.8624ZM33.6986 30.8V31.58H37.6986V30.8H33.6986ZM33.6986 31.58C33.6986 32.0787 33.8165 32.8503 34.4404 33.4742L37.2688 30.6458C37.6847 31.0617 37.6986 31.5133 37.6986 31.58H33.6986ZM34.4981 33.5296C35.1 34.0852 35.8154 34.204 36.3106 34.204V30.204C36.4058 30.204 36.8173 30.2268 37.2112 30.5904L34.4981 33.5296Z" fill="black" mask="url(#path-35-outside-1_43_2101)"/>
</svg>
