<svg width="48" height="48" viewBox="0 0 48 48" fill="none" xmlns="http://www.w3.org/2000/svg">
<g opacity="0.5">
<rect opacity="0.5" x="23" y="13" width="3" height="18" fill="#B78A6A"/>
<rect opacity="0.5" x="43" y="31" width="3" height="32" transform="rotate(90 43 31)" fill="#2C2B2C"/>
<rect opacity="0.5" x="43" y="34" width="3" height="32" transform="rotate(90 43 34)" fill="#438BCB"/>
<rect opacity="0.5" x="34" y="37" width="3" height="20" transform="rotate(90 34 37)" fill="#438BCB"/>
<rect opacity="0.5" x="34" y="37" width="3" height="17" transform="rotate(90 34 37)" fill="#3F7FB5"/>
<rect opacity="0.5" x="40" y="34" width="3" height="6" transform="rotate(90 40 34)" fill="#3F7FB5"/>
<rect opacity="0.5" x="29" y="31" width="3" height="27" transform="rotate(180 29 31)" fill="#2C2B2C"/>
<rect opacity="0.5" x="23" y="31" width="3" height="18" transform="rotate(180 23 31)" fill="#2C2B2C"/>
<rect opacity="0.5" x="9" y="28" width="3" height="11" transform="rotate(-90 9 28)" fill="#2C2B2C"/>
<rect opacity="0.5" x="29" y="28" width="3" height="16" transform="rotate(-90 29 28)" fill="#2C2B2C"/>
<rect opacity="0.5" x="14" y="7" width="3" height="12" transform="rotate(-90 14 7)" fill="#2C2B2C"/>
<rect opacity="0.5" x="23" y="13" width="3" height="3" transform="rotate(-90 23 13)" fill="#2C2B2C"/>
<rect opacity="0.5" x="11" y="10" width="3" height="3" transform="rotate(-90 11 10)" fill="#2C2B2C"/>
<rect opacity="0.5" x="11" y="25" width="4" height="3" transform="rotate(-90 11 25)" fill="#2C2B2C"/>
<rect opacity="0.5" x="14" y="21" width="4" height="3" transform="rotate(-90 14 21)" fill="#2C2B2C"/>
<rect opacity="0.5" x="41" y="25" width="3" height="3" transform="rotate(-90 41 25)" fill="#2C2B2C"/>
<rect opacity="0.5" x="35" y="19" width="3" height="3" transform="rotate(-90 35 19)" fill="#2C2B2C"/>
<rect opacity="0.5" x="38" y="22" width="3" height="3" transform="rotate(-90 38 22)" fill="#2C2B2C"/>
<rect opacity="0.5" x="32" y="16" width="3" height="3" transform="rotate(-90 32 16)" fill="#2C2B2C"/>
<rect opacity="0.5" x="29" y="13" width="3" height="3" transform="rotate(-90 29 13)" fill="#2C2B2C"/>
<rect opacity="0.5" x="17" y="17" width="3" height="3" transform="rotate(-90 17 17)" fill="#2C2B2C"/>
<rect opacity="0.5" x="17" y="25" width="8" height="3" transform="rotate(-90 17 25)" fill="#F1F1F1"/>
<rect opacity="0.5" x="38" y="25" width="3" height="3" transform="rotate(-90 38 25)" fill="#F1F1F1"/>
<rect opacity="0.5" x="29" y="25" width="12" height="3" transform="rotate(-90 29 25)" fill="#F1F1F1"/>
<rect opacity="0.5" x="32" y="25" width="9" height="3" transform="rotate(-90 32 25)" fill="#F1F1F1"/>
<rect opacity="0.5" x="35" y="25" width="6" height="3" transform="rotate(-90 35 25)" fill="#F1F1F1"/>
<rect opacity="0.5" x="14" y="25" width="4" height="3" transform="rotate(-90 14 25)" fill="#F1F1F1"/>
<rect opacity="0.5" x="14" y="13" width="3" height="9" transform="rotate(-90 14 13)" fill="#2C2B2C"/>
<rect opacity="0.5" x="34" y="40" width="3" height="17" transform="rotate(90 34 40)" fill="#2C2B2C"/>
<rect opacity="0.5" x="40" y="37" width="3" height="6" transform="rotate(90 40 37)" fill="#2C2B2C"/>
<rect opacity="0.5" x="43" y="34" width="3" height="3" transform="rotate(90 43 34)" fill="#2C2B2C"/>
<rect opacity="0.5" x="14" y="34" width="3" height="3" transform="rotate(90 14 34)" fill="#2C2B2C"/>
<rect opacity="0.5" x="17" y="37" width="3" height="3" transform="rotate(90 17 37)" fill="#2C2B2C"/>
<rect opacity="0.5" x="14" y="7" width="12" height="3" fill="#E04819"/>
<rect opacity="0.5" x="23" y="13" width="3" height="18" fill="#B78A6A"/>
<rect opacity="0.5" x="43" y="31" width="3" height="32" transform="rotate(90 43 31)" fill="#2C2B2C"/>
<rect opacity="0.5" x="43" y="34" width="3" height="32" transform="rotate(90 43 34)" fill="#438BCB"/>
<rect opacity="0.5" x="34" y="37" width="3" height="20" transform="rotate(90 34 37)" fill="#438BCB"/>
<rect opacity="0.5" x="34" y="37" width="3" height="17" transform="rotate(90 34 37)" fill="#3F7FB5"/>
<rect opacity="0.5" x="40" y="34" width="3" height="6" transform="rotate(90 40 34)" fill="#3F7FB5"/>
<rect opacity="0.5" x="29" y="31" width="3" height="27" transform="rotate(180 29 31)" fill="#2C2B2C"/>
<rect opacity="0.5" x="23" y="31" width="3" height="18" transform="rotate(180 23 31)" fill="#2C2B2C"/>
<rect opacity="0.5" x="9" y="28" width="3" height="11" transform="rotate(-90 9 28)" fill="#2C2B2C"/>
<rect opacity="0.5" x="29" y="28" width="3" height="16" transform="rotate(-90 29 28)" fill="#2C2B2C"/>
<rect opacity="0.5" x="14" y="7" width="3" height="12" transform="rotate(-90 14 7)" fill="#2C2B2C"/>
<rect opacity="0.5" x="23" y="13" width="3" height="3" transform="rotate(-90 23 13)" fill="#2C2B2C"/>
<rect opacity="0.5" x="11" y="10" width="3" height="3" transform="rotate(-90 11 10)" fill="#2C2B2C"/>
<rect opacity="0.5" x="11" y="25" width="4" height="3" transform="rotate(-90 11 25)" fill="#2C2B2C"/>
<rect opacity="0.5" x="14" y="21" width="4" height="3" transform="rotate(-90 14 21)" fill="#2C2B2C"/>
<rect opacity="0.5" x="41" y="25" width="3" height="3" transform="rotate(-90 41 25)" fill="#2C2B2C"/>
<rect opacity="0.5" x="35" y="19" width="3" height="3" transform="rotate(-90 35 19)" fill="#2C2B2C"/>
<rect opacity="0.5" x="38" y="22" width="3" height="3" transform="rotate(-90 38 22)" fill="#2C2B2C"/>
<rect opacity="0.5" x="32" y="16" width="3" height="3" transform="rotate(-90 32 16)" fill="#2C2B2C"/>
<rect opacity="0.5" x="29" y="13" width="3" height="3" transform="rotate(-90 29 13)" fill="#2C2B2C"/>
<rect opacity="0.5" x="17" y="17" width="3" height="3" transform="rotate(-90 17 17)" fill="#2C2B2C"/>
<rect opacity="0.5" x="17" y="25" width="8" height="3" transform="rotate(-90 17 25)" fill="#F1F1F1"/>
<rect opacity="0.5" x="38" y="25" width="3" height="3" transform="rotate(-90 38 25)" fill="#F1F1F1"/>
<rect opacity="0.5" x="29" y="25" width="12" height="3" transform="rotate(-90 29 25)" fill="#F1F1F1"/>
<rect opacity="0.5" x="32" y="25" width="9" height="3" transform="rotate(-90 32 25)" fill="#F1F1F1"/>
<rect opacity="0.5" x="35" y="25" width="6" height="3" transform="rotate(-90 35 25)" fill="#F1F1F1"/>
<rect opacity="0.5" x="14" y="25" width="4" height="3" transform="rotate(-90 14 25)" fill="#F1F1F1"/>
<rect opacity="0.5" x="14" y="13" width="3" height="9" transform="rotate(-90 14 13)" fill="#2C2B2C"/>
<rect opacity="0.5" x="34" y="40" width="3" height="17" transform="rotate(90 34 40)" fill="#2C2B2C"/>
<rect opacity="0.5" x="40" y="37" width="3" height="6" transform="rotate(90 40 37)" fill="#2C2B2C"/>
<rect opacity="0.5" x="43" y="34" width="3" height="3" transform="rotate(90 43 34)" fill="#2C2B2C"/>
<rect opacity="0.5" x="14" y="34" width="3" height="3" transform="rotate(90 14 34)" fill="#2C2B2C"/>
<rect opacity="0.5" x="17" y="37" width="3" height="3" transform="rotate(90 17 37)" fill="#2C2B2C"/>
<rect opacity="0.5" x="14" y="7" width="12" height="3" fill="#E04819"/>
<rect x="23" y="13" width="3" height="18" fill="#B78A6A"/>
<rect x="43" y="31" width="3" height="32" transform="rotate(90 43 31)" fill="#2C2B2C"/>
<rect x="43" y="34" width="3" height="32" transform="rotate(90 43 34)" fill="#438BCB"/>
<rect x="34" y="37" width="3" height="20" transform="rotate(90 34 37)" fill="#438BCB"/>
<rect x="34" y="37" width="3" height="17" transform="rotate(90 34 37)" fill="#3F7FB5"/>
<rect x="40" y="34" width="3" height="6" transform="rotate(90 40 34)" fill="#3F7FB5"/>
<rect x="29" y="31" width="3" height="27" transform="rotate(180 29 31)" fill="#2C2B2C"/>
<rect x="23" y="31" width="3" height="18" transform="rotate(180 23 31)" fill="#2C2B2C"/>
<rect x="9" y="28" width="3" height="11" transform="rotate(-90 9 28)" fill="#2C2B2C"/>
<rect x="29" y="28" width="3" height="16" transform="rotate(-90 29 28)" fill="#2C2B2C"/>
<rect x="14" y="7" width="3" height="12" transform="rotate(-90 14 7)" fill="#2C2B2C"/>
<rect x="23" y="13" width="3" height="3" transform="rotate(-90 23 13)" fill="#2C2B2C"/>
<rect x="11" y="10" width="3" height="3" transform="rotate(-90 11 10)" fill="#2C2B2C"/>
<rect x="11" y="25" width="4" height="3" transform="rotate(-90 11 25)" fill="#2C2B2C"/>
<rect x="14" y="21" width="4" height="3" transform="rotate(-90 14 21)" fill="#2C2B2C"/>
<rect x="41" y="25" width="3" height="3" transform="rotate(-90 41 25)" fill="#2C2B2C"/>
<rect x="35" y="19" width="3" height="3" transform="rotate(-90 35 19)" fill="#2C2B2C"/>
<rect x="38" y="22" width="3" height="3" transform="rotate(-90 38 22)" fill="#2C2B2C"/>
<rect x="32" y="16" width="3" height="3" transform="rotate(-90 32 16)" fill="#2C2B2C"/>
<rect x="29" y="13" width="3" height="3" transform="rotate(-90 29 13)" fill="#2C2B2C"/>
<rect x="17" y="17" width="3" height="3" transform="rotate(-90 17 17)" fill="#2C2B2C"/>
<rect x="17" y="25" width="8" height="3" transform="rotate(-90 17 25)" fill="#F1F1F1"/>
<rect x="38" y="25" width="3" height="3" transform="rotate(-90 38 25)" fill="#F1F1F1"/>
<rect x="29" y="25" width="12" height="3" transform="rotate(-90 29 25)" fill="#F1F1F1"/>
<rect x="32" y="25" width="9" height="3" transform="rotate(-90 32 25)" fill="#F1F1F1"/>
<rect x="35" y="25" width="6" height="3" transform="rotate(-90 35 25)" fill="#F1F1F1"/>
<rect x="14" y="25" width="4" height="3" transform="rotate(-90 14 25)" fill="#F1F1F1"/>
<rect x="14" y="13" width="3" height="9" transform="rotate(-90 14 13)" fill="#2C2B2C"/>
<rect x="34" y="40" width="3" height="17" transform="rotate(90 34 40)" fill="#2C2B2C"/>
<rect x="40" y="37" width="3" height="6" transform="rotate(90 40 37)" fill="#2C2B2C"/>
<rect x="43" y="34" width="3" height="3" transform="rotate(90 43 34)" fill="#2C2B2C"/>
<rect x="14" y="34" width="3" height="3" transform="rotate(90 14 34)" fill="#2C2B2C"/>
<rect x="17" y="37" width="3" height="3" transform="rotate(90 17 37)" fill="#2C2B2C"/>
<rect x="14" y="7" width="12" height="3" fill="#E04819"/>
<rect x="23" y="13" width="3" height="18" fill="#B78A6A"/>
<rect x="43" y="31" width="3" height="32" transform="rotate(90 43 31)" fill="#2C2B2C"/>
<rect x="43" y="34" width="3" height="32" transform="rotate(90 43 34)" fill="#438BCB"/>
<rect x="34" y="37" width="3" height="20" transform="rotate(90 34 37)" fill="#438BCB"/>
<rect x="34" y="37" width="3" height="17" transform="rotate(90 34 37)" fill="#3F7FB5"/>
<rect x="40" y="34" width="3" height="6" transform="rotate(90 40 34)" fill="#DF704D"/>
<rect x="29" y="31" width="3" height="27" transform="rotate(180 29 31)" fill="#2C2B2C"/>
<rect x="23" y="31" width="3" height="18" transform="rotate(180 23 31)" fill="#2C2B2C"/>
<rect x="9" y="28" width="3" height="11" transform="rotate(-90 9 28)" fill="#2C2B2C"/>
<rect x="29" y="28" width="3" height="16" transform="rotate(-90 29 28)" fill="#2C2B2C"/>
<rect x="14" y="7" width="3" height="12" transform="rotate(-90 14 7)" fill="#2C2B2C"/>
<rect x="23" y="13" width="3" height="3" transform="rotate(-90 23 13)" fill="#2C2B2C"/>
<rect x="11" y="10" width="3" height="3" transform="rotate(-90 11 10)" fill="#2C2B2C"/>
<rect x="11" y="25" width="4" height="3" transform="rotate(-90 11 25)" fill="#2C2B2C"/>
<rect x="14" y="21" width="4" height="3" transform="rotate(-90 14 21)" fill="#2C2B2C"/>
<rect x="41" y="25" width="3" height="3" transform="rotate(-90 41 25)" fill="#2C2B2C"/>
<rect x="35" y="19" width="3" height="3" transform="rotate(-90 35 19)" fill="#2C2B2C"/>
<rect x="38" y="22" width="3" height="3" transform="rotate(-90 38 22)" fill="#2C2B2C"/>
<rect x="32" y="16" width="3" height="3" transform="rotate(-90 32 16)" fill="#2C2B2C"/>
<rect x="29" y="13" width="3" height="3" transform="rotate(-90 29 13)" fill="#2C2B2C"/>
<rect x="17" y="17" width="3" height="3" transform="rotate(-90 17 17)" fill="#2C2B2C"/>
<rect x="17" y="25" width="8" height="3" transform="rotate(-90 17 25)" fill="#F1F1F1"/>
<rect x="38" y="25" width="3" height="3" transform="rotate(-90 38 25)" fill="#F1F1F1"/>
<rect x="29" y="25" width="12" height="3" transform="rotate(-90 29 25)" fill="#F1F1F1"/>
<rect x="32" y="25" width="9" height="3" transform="rotate(-90 32 25)" fill="#F1F1F1"/>
<rect x="35" y="25" width="6" height="3" transform="rotate(-90 35 25)" fill="#F1F1F1"/>
<rect x="14" y="25" width="4" height="3" transform="rotate(-90 14 25)" fill="#F1F1F1"/>
<rect x="14" y="13" width="3" height="9" transform="rotate(-90 14 13)" fill="#2C2B2C"/>
<rect x="34" y="40" width="3" height="17" transform="rotate(90 34 40)" fill="#2C2B2C"/>
<rect x="40" y="37" width="3" height="6" transform="rotate(90 40 37)" fill="#2C2B2C"/>
<rect x="43" y="34" width="3" height="3" transform="rotate(90 43 34)" fill="#2C2B2C"/>
<rect x="14" y="34" width="3" height="3" transform="rotate(90 14 34)" fill="#2C2B2C"/>
<rect x="17" y="37" width="3" height="3" transform="rotate(90 17 37)" fill="#2C2B2C"/>
<rect x="14" y="7" width="12" height="3" fill="#2F7036"/>
</g>
<rect opacity="0.5" x="17" y="15" width="3" height="18" fill="#B78A6A"/>
<rect opacity="0.5" x="37" y="33" width="3" height="32" transform="rotate(90 37 33)" fill="#2C2B2C"/>
<rect opacity="0.5" x="37" y="36" width="3" height="32" transform="rotate(90 37 36)" fill="#438BCB"/>
<rect opacity="0.5" x="28" y="39" width="3" height="20" transform="rotate(90 28 39)" fill="#438BCB"/>
<rect opacity="0.5" x="28" y="39" width="3" height="17" transform="rotate(90 28 39)" fill="#3F7FB5"/>
<rect opacity="0.5" x="34" y="36" width="3" height="6" transform="rotate(90 34 36)" fill="#3F7FB5"/>
<rect opacity="0.5" x="23" y="33" width="3" height="27" transform="rotate(180 23 33)" fill="#2C2B2C"/>
<rect opacity="0.5" x="17" y="33" width="3" height="18" transform="rotate(180 17 33)" fill="#2C2B2C"/>
<rect opacity="0.5" x="3" y="30" width="3" height="11" transform="rotate(-90 3 30)" fill="#2C2B2C"/>
<rect opacity="0.5" x="23" y="30" width="3" height="16" transform="rotate(-90 23 30)" fill="#2C2B2C"/>
<rect opacity="0.5" x="8" y="9" width="3" height="12" transform="rotate(-90 8 9)" fill="#2C2B2C"/>
<rect opacity="0.5" x="17" y="15" width="3" height="3" transform="rotate(-90 17 15)" fill="#2C2B2C"/>
<rect opacity="0.5" x="5" y="12" width="3" height="3" transform="rotate(-90 5 12)" fill="#2C2B2C"/>
<rect opacity="0.5" x="5" y="27" width="4" height="3" transform="rotate(-90 5 27)" fill="#2C2B2C"/>
<rect opacity="0.5" x="8" y="23" width="4" height="3" transform="rotate(-90 8 23)" fill="#2C2B2C"/>
<rect opacity="0.5" x="35" y="27" width="3" height="3" transform="rotate(-90 35 27)" fill="#2C2B2C"/>
<rect opacity="0.5" x="29" y="21" width="3" height="3" transform="rotate(-90 29 21)" fill="#2C2B2C"/>
<rect opacity="0.5" x="32" y="24" width="3" height="3" transform="rotate(-90 32 24)" fill="#2C2B2C"/>
<rect opacity="0.5" x="26" y="18" width="3" height="3" transform="rotate(-90 26 18)" fill="#2C2B2C"/>
<rect opacity="0.5" x="23" y="15" width="3" height="3" transform="rotate(-90 23 15)" fill="#2C2B2C"/>
<rect opacity="0.5" x="11" y="19" width="3" height="3" transform="rotate(-90 11 19)" fill="#2C2B2C"/>
<rect opacity="0.5" x="11" y="27" width="8" height="3" transform="rotate(-90 11 27)" fill="#F1F1F1"/>
<rect opacity="0.5" x="32" y="27" width="3" height="3" transform="rotate(-90 32 27)" fill="#F1F1F1"/>
<rect opacity="0.5" x="23" y="27" width="12" height="3" transform="rotate(-90 23 27)" fill="#F1F1F1"/>
<rect opacity="0.5" x="26" y="27" width="9" height="3" transform="rotate(-90 26 27)" fill="#F1F1F1"/>
<rect opacity="0.5" x="29" y="27" width="6" height="3" transform="rotate(-90 29 27)" fill="#F1F1F1"/>
<rect opacity="0.5" x="8" y="27" width="4" height="3" transform="rotate(-90 8 27)" fill="#F1F1F1"/>
<rect opacity="0.5" x="8" y="15" width="3" height="9" transform="rotate(-90 8 15)" fill="#2C2B2C"/>
<rect opacity="0.5" x="28" y="42" width="3" height="17" transform="rotate(90 28 42)" fill="#2C2B2C"/>
<rect opacity="0.5" x="34" y="39" width="3" height="6" transform="rotate(90 34 39)" fill="#2C2B2C"/>
<rect opacity="0.5" x="37" y="36" width="3" height="3" transform="rotate(90 37 36)" fill="#2C2B2C"/>
<rect opacity="0.5" x="8" y="36" width="3" height="3" transform="rotate(90 8 36)" fill="#2C2B2C"/>
<rect opacity="0.5" x="11" y="39" width="3" height="3" transform="rotate(90 11 39)" fill="#2C2B2C"/>
<rect opacity="0.5" x="8" y="9" width="12" height="3" fill="#E04819"/>
<rect opacity="0.5" x="17" y="15" width="3" height="18" fill="#B78A6A"/>
<rect opacity="0.5" x="37" y="33" width="3" height="32" transform="rotate(90 37 33)" fill="#2C2B2C"/>
<rect opacity="0.5" x="37" y="36" width="3" height="32" transform="rotate(90 37 36)" fill="#438BCB"/>
<rect opacity="0.5" x="28" y="39" width="3" height="20" transform="rotate(90 28 39)" fill="#438BCB"/>
<rect opacity="0.5" x="28" y="39" width="3" height="17" transform="rotate(90 28 39)" fill="#3F7FB5"/>
<rect opacity="0.5" x="34" y="36" width="3" height="6" transform="rotate(90 34 36)" fill="#3F7FB5"/>
<rect opacity="0.5" x="23" y="33" width="3" height="27" transform="rotate(180 23 33)" fill="#2C2B2C"/>
<rect opacity="0.5" x="17" y="33" width="3" height="18" transform="rotate(180 17 33)" fill="#2C2B2C"/>
<rect opacity="0.5" x="3" y="30" width="3" height="11" transform="rotate(-90 3 30)" fill="#2C2B2C"/>
<rect opacity="0.5" x="23" y="30" width="3" height="16" transform="rotate(-90 23 30)" fill="#2C2B2C"/>
<rect opacity="0.5" x="8" y="9" width="3" height="12" transform="rotate(-90 8 9)" fill="#2C2B2C"/>
<rect opacity="0.5" x="17" y="15" width="3" height="3" transform="rotate(-90 17 15)" fill="#2C2B2C"/>
<rect opacity="0.5" x="5" y="12" width="3" height="3" transform="rotate(-90 5 12)" fill="#2C2B2C"/>
<rect opacity="0.5" x="5" y="27" width="4" height="3" transform="rotate(-90 5 27)" fill="#2C2B2C"/>
<rect opacity="0.5" x="8" y="23" width="4" height="3" transform="rotate(-90 8 23)" fill="#2C2B2C"/>
<rect opacity="0.5" x="35" y="27" width="3" height="3" transform="rotate(-90 35 27)" fill="#2C2B2C"/>
<rect opacity="0.5" x="29" y="21" width="3" height="3" transform="rotate(-90 29 21)" fill="#2C2B2C"/>
<rect opacity="0.5" x="32" y="24" width="3" height="3" transform="rotate(-90 32 24)" fill="#2C2B2C"/>
<rect opacity="0.5" x="26" y="18" width="3" height="3" transform="rotate(-90 26 18)" fill="#2C2B2C"/>
<rect opacity="0.5" x="23" y="15" width="3" height="3" transform="rotate(-90 23 15)" fill="#2C2B2C"/>
<rect opacity="0.5" x="11" y="19" width="3" height="3" transform="rotate(-90 11 19)" fill="#2C2B2C"/>
<rect opacity="0.5" x="11" y="27" width="8" height="3" transform="rotate(-90 11 27)" fill="#F1F1F1"/>
<rect opacity="0.5" x="32" y="27" width="3" height="3" transform="rotate(-90 32 27)" fill="#F1F1F1"/>
<rect opacity="0.5" x="23" y="27" width="12" height="3" transform="rotate(-90 23 27)" fill="#F1F1F1"/>
<rect opacity="0.5" x="26" y="27" width="9" height="3" transform="rotate(-90 26 27)" fill="#F1F1F1"/>
<rect opacity="0.5" x="29" y="27" width="6" height="3" transform="rotate(-90 29 27)" fill="#F1F1F1"/>
<rect opacity="0.5" x="8" y="27" width="4" height="3" transform="rotate(-90 8 27)" fill="#F1F1F1"/>
<rect opacity="0.5" x="8" y="15" width="3" height="9" transform="rotate(-90 8 15)" fill="#2C2B2C"/>
<rect opacity="0.5" x="28" y="42" width="3" height="17" transform="rotate(90 28 42)" fill="#2C2B2C"/>
<rect opacity="0.5" x="34" y="39" width="3" height="6" transform="rotate(90 34 39)" fill="#2C2B2C"/>
<rect opacity="0.5" x="37" y="36" width="3" height="3" transform="rotate(90 37 36)" fill="#2C2B2C"/>
<rect opacity="0.5" x="8" y="36" width="3" height="3" transform="rotate(90 8 36)" fill="#2C2B2C"/>
<rect opacity="0.5" x="11" y="39" width="3" height="3" transform="rotate(90 11 39)" fill="#2C2B2C"/>
<rect opacity="0.5" x="8" y="9" width="12" height="3" fill="#E04819"/>
<rect x="17" y="15" width="3" height="18" fill="#B78A6A"/>
<rect x="37" y="33" width="3" height="32" transform="rotate(90 37 33)" fill="#2C2B2C"/>
<rect x="37" y="36" width="3" height="32" transform="rotate(90 37 36)" fill="#438BCB"/>
<rect x="28" y="39" width="3" height="20" transform="rotate(90 28 39)" fill="#438BCB"/>
<rect x="28" y="39" width="3" height="17" transform="rotate(90 28 39)" fill="#3F7FB5"/>
<rect x="34" y="36" width="3" height="6" transform="rotate(90 34 36)" fill="#3F7FB5"/>
<rect x="23" y="33" width="3" height="27" transform="rotate(180 23 33)" fill="#2C2B2C"/>
<rect x="17" y="33" width="3" height="18" transform="rotate(180 17 33)" fill="#2C2B2C"/>
<rect x="3" y="30" width="3" height="11" transform="rotate(-90 3 30)" fill="#2C2B2C"/>
<rect x="23" y="30" width="3" height="16" transform="rotate(-90 23 30)" fill="#2C2B2C"/>
<rect x="8" y="9" width="3" height="12" transform="rotate(-90 8 9)" fill="#2C2B2C"/>
<rect x="17" y="15" width="3" height="3" transform="rotate(-90 17 15)" fill="#2C2B2C"/>
<rect x="5" y="12" width="3" height="3" transform="rotate(-90 5 12)" fill="#2C2B2C"/>
<rect x="5" y="27" width="4" height="3" transform="rotate(-90 5 27)" fill="#2C2B2C"/>
<rect x="8" y="23" width="4" height="3" transform="rotate(-90 8 23)" fill="#2C2B2C"/>
<rect x="35" y="27" width="3" height="3" transform="rotate(-90 35 27)" fill="#2C2B2C"/>
<rect x="29" y="21" width="3" height="3" transform="rotate(-90 29 21)" fill="#2C2B2C"/>
<rect x="32" y="24" width="3" height="3" transform="rotate(-90 32 24)" fill="#2C2B2C"/>
<rect x="26" y="18" width="3" height="3" transform="rotate(-90 26 18)" fill="#2C2B2C"/>
<rect x="23" y="15" width="3" height="3" transform="rotate(-90 23 15)" fill="#2C2B2C"/>
<rect x="11" y="19" width="3" height="3" transform="rotate(-90 11 19)" fill="#2C2B2C"/>
<rect x="11" y="27" width="8" height="3" transform="rotate(-90 11 27)" fill="#F1F1F1"/>
<rect x="32" y="27" width="3" height="3" transform="rotate(-90 32 27)" fill="#F1F1F1"/>
<rect x="23" y="27" width="12" height="3" transform="rotate(-90 23 27)" fill="#F1F1F1"/>
<rect x="26" y="27" width="9" height="3" transform="rotate(-90 26 27)" fill="#F1F1F1"/>
<rect x="29" y="27" width="6" height="3" transform="rotate(-90 29 27)" fill="#F1F1F1"/>
<rect x="8" y="27" width="4" height="3" transform="rotate(-90 8 27)" fill="#F1F1F1"/>
<rect x="8" y="15" width="3" height="9" transform="rotate(-90 8 15)" fill="#2C2B2C"/>
<rect x="28" y="42" width="3" height="17" transform="rotate(90 28 42)" fill="#2C2B2C"/>
<rect x="34" y="39" width="3" height="6" transform="rotate(90 34 39)" fill="#2C2B2C"/>
<rect x="37" y="36" width="3" height="3" transform="rotate(90 37 36)" fill="#2C2B2C"/>
<rect x="8" y="36" width="3" height="3" transform="rotate(90 8 36)" fill="#2C2B2C"/>
<rect x="11" y="39" width="3" height="3" transform="rotate(90 11 39)" fill="#2C2B2C"/>
<rect x="8" y="9" width="12" height="3" fill="#E04819"/>
<rect x="17" y="15" width="3" height="18" fill="#B78A6A"/>
<rect x="37" y="33" width="3" height="32" transform="rotate(90 37 33)" fill="#2C2B2C"/>
<rect x="37" y="36" width="3" height="32" transform="rotate(90 37 36)" fill="#E04819"/>
<rect x="28" y="39" width="3" height="20" transform="rotate(90 28 39)" fill="#438BCB"/>
<rect x="28" y="39" width="3" height="17" transform="rotate(90 28 39)" fill="#E04819"/>
<rect x="34" y="36" width="3" height="6" transform="rotate(90 34 36)" fill="#DF704D"/>
<rect x="23" y="33" width="3" height="27" transform="rotate(180 23 33)" fill="#2C2B2C"/>
<rect x="17" y="33" width="3" height="18" transform="rotate(180 17 33)" fill="#2C2B2C"/>
<rect x="3" y="30" width="3" height="11" transform="rotate(-90 3 30)" fill="#2C2B2C"/>
<rect x="23" y="30" width="3" height="16" transform="rotate(-90 23 30)" fill="#2C2B2C"/>
<rect x="8" y="9" width="3" height="12" transform="rotate(-90 8 9)" fill="#2C2B2C"/>
<rect x="17" y="15" width="3" height="3" transform="rotate(-90 17 15)" fill="#2C2B2C"/>
<rect x="5" y="12" width="3" height="3" transform="rotate(-90 5 12)" fill="#2C2B2C"/>
<rect x="5" y="27" width="4" height="3" transform="rotate(-90 5 27)" fill="#2C2B2C"/>
<rect x="8" y="23" width="4" height="3" transform="rotate(-90 8 23)" fill="#2C2B2C"/>
<rect x="35" y="27" width="3" height="3" transform="rotate(-90 35 27)" fill="#2C2B2C"/>
<rect x="29" y="21" width="3" height="3" transform="rotate(-90 29 21)" fill="#2C2B2C"/>
<rect x="32" y="24" width="3" height="3" transform="rotate(-90 32 24)" fill="#2C2B2C"/>
<rect x="26" y="18" width="3" height="3" transform="rotate(-90 26 18)" fill="#2C2B2C"/>
<rect x="23" y="15" width="3" height="3" transform="rotate(-90 23 15)" fill="#2C2B2C"/>
<rect x="11" y="19" width="3" height="3" transform="rotate(-90 11 19)" fill="#2C2B2C"/>
<rect x="11" y="27" width="8" height="3" transform="rotate(-90 11 27)" fill="#F1F1F1"/>
<rect x="32" y="27" width="3" height="3" transform="rotate(-90 32 27)" fill="#F1F1F1"/>
<rect x="23" y="27" width="12" height="3" transform="rotate(-90 23 27)" fill="#F1F1F1"/>
<rect x="26" y="27" width="9" height="3" transform="rotate(-90 26 27)" fill="#F1F1F1"/>
<rect x="29" y="27" width="6" height="3" transform="rotate(-90 29 27)" fill="#F1F1F1"/>
<rect x="8" y="27" width="4" height="3" transform="rotate(-90 8 27)" fill="#F1F1F1"/>
<rect x="8" y="15" width="3" height="9" transform="rotate(-90 8 15)" fill="#2C2B2C"/>
<rect x="28" y="42" width="3" height="17" transform="rotate(90 28 42)" fill="#2C2B2C"/>
<rect x="34" y="39" width="3" height="6" transform="rotate(90 34 39)" fill="#2C2B2C"/>
<rect x="37" y="36" width="3" height="3" transform="rotate(90 37 36)" fill="#2C2B2C"/>
<rect x="8" y="36" width="3" height="3" transform="rotate(90 8 36)" fill="#2C2B2C"/>
<rect x="11" y="39" width="3" height="3" transform="rotate(90 11 39)" fill="#2C2B2C"/>
<rect x="8" y="9" width="12" height="3" fill="#2F7036"/>
</svg>
