<svg width="48" height="48" viewBox="0 0 48 48" fill="none" xmlns="http://www.w3.org/2000/svg">
<g opacity="0.6">
<rect width="13" height="15" transform="matrix(0 -1 -1 0 38 25)" fill="#D3D3D3"/>
<rect width="13" height="15" transform="matrix(0 -1 -1 0 38 28)" fill="#B0ABAB"/>
<rect width="13" height="9" transform="matrix(0 -1 -1 0 35 22)" fill="#D3D3D3"/>
<rect width="22" height="9" transform="matrix(0 -1 -1 0 35 31)" fill="#B0ABAB"/>
<rect width="3" height="3" transform="matrix(0 -1 -1 0 29 12)" fill="#2C2B2C"/>
<rect width="3" height="3" transform="matrix(0 -1 -1 0 35 12)" fill="#2C2B2C"/>
<rect width="3" height="3" transform="matrix(0 -1 -1 0 26 15)" fill="#2C2B2C"/>
<rect width="3" height="3" transform="matrix(0 -1 -1 0 26 28)" fill="#2C2B2C"/>
<rect width="3" height="3" transform="matrix(0 -1 -1 0 38 28)" fill="#2C2B2C"/>
<rect width="3" height="3" transform="matrix(0 -1 -1 0 29 31)" fill="#2C2B2C"/>
<rect width="3" height="3" transform="matrix(0 -1 -1 0 35 31)" fill="#2C2B2C"/>
<rect width="3" height="3" transform="matrix(0 -1 -1 0 32 34)" fill="#2C2B2C"/>
<rect width="3" height="3" transform="matrix(0 -1 -1 0 23 31)" fill="#2C2B2C"/>
<rect width="3" height="3" transform="matrix(0 -1 -1 0 20 34)" fill="#2C2B2C"/>
<rect width="6" height="3" transform="matrix(0 -1 -1 0 20 40)" fill="#2C2B2C"/>
<rect width="3" height="3" transform="matrix(0 -1 -1 0 41 31)" fill="#2C2B2C"/>
<rect width="3" height="3" transform="matrix(0 -1 -1 0 44 34)" fill="#2C2B2C"/>
<rect width="6" height="3" transform="matrix(0 -1 -1 0 44 40)" fill="#2C2B2C"/>
<rect width="3" height="3" transform="matrix(0 -1 -1 0 38 15)" fill="#2C2B2C"/>
<rect width="10" height="3" transform="matrix(0 -1 -1 0 23 25)" fill="#2C2B2C"/>
<rect width="10" height="3" transform="matrix(0 -1 -1 0 41 25)" fill="#2C2B2C"/>
<rect width="3" height="3" transform="matrix(0 -1 -1 0 32 9)" fill="#2C2B2C"/>
<rect width="8" height="3" transform="matrix(0 -1 -1 0 32 28)" fill="#7D7B7A"/>
<rect width="5" height="3" transform="matrix(0 -1 -1 0 26 25)" fill="#7D7B7A"/>
<rect width="5" height="3" transform="matrix(0 -1 -1 0 38 25)" fill="#7D7B7A"/>
<rect width="9" height="9" transform="matrix(0 -1 -1 0 35 21)" fill="#7D7B7A"/>
<rect width="6" height="7" transform="matrix(0 -1 -1 0 34 20)" fill="#9A3516"/>
</g>
<g opacity="0.3">
<rect width="13" height="15" transform="matrix(0 -1 -1 0 25 22)" fill="#D3D3D3"/>
<rect width="13" height="15" transform="matrix(0 -1 -1 0 25 25)" fill="#B0ABAB"/>
<rect width="13" height="9" transform="matrix(0 -1 -1 0 22 19)" fill="#D3D3D3"/>
<rect width="22" height="9" transform="matrix(0 -1 -1 0 22 28)" fill="#B0ABAB"/>
<rect width="3" height="3" transform="matrix(0 -1 -1 0 16 9)" fill="#2C2B2C"/>
<rect width="3" height="3" transform="matrix(0 -1 -1 0 22 9)" fill="#2C2B2C"/>
<rect width="3" height="3" transform="matrix(0 -1 -1 0 13 12)" fill="#2C2B2C"/>
<rect width="3" height="3" transform="matrix(0 -1 -1 0 13 25)" fill="#2C2B2C"/>
<rect width="3" height="3" transform="matrix(0 -1 -1 0 25 25)" fill="#2C2B2C"/>
<rect width="3" height="3" transform="matrix(0 -1 -1 0 16 28)" fill="#2C2B2C"/>
<rect width="3" height="3" transform="matrix(0 -1 -1 0 22 28)" fill="#2C2B2C"/>
<rect width="3" height="3" transform="matrix(0 -1 -1 0 19 31)" fill="#2C2B2C"/>
<rect width="3" height="3" transform="matrix(0 -1 -1 0 10 28)" fill="#2C2B2C"/>
<rect width="3" height="3" transform="matrix(0 -1 -1 0 7 31)" fill="#2C2B2C"/>
<rect width="6" height="3" transform="matrix(0 -1 -1 0 7 37)" fill="#2C2B2C"/>
<rect width="3" height="3" transform="matrix(0 -1 -1 0 28 28)" fill="#2C2B2C"/>
<rect width="3" height="3" transform="matrix(0 -1 -1 0 31 31)" fill="#2C2B2C"/>
<rect width="6" height="3" transform="matrix(0 -1 -1 0 31 37)" fill="#2C2B2C"/>
<rect width="3" height="3" transform="matrix(0 -1 -1 0 25 12)" fill="#2C2B2C"/>
<rect width="10" height="3" transform="matrix(0 -1 -1 0 10 22)" fill="#2C2B2C"/>
<rect width="10" height="3" transform="matrix(0 -1 -1 0 28 22)" fill="#2C2B2C"/>
<rect width="3" height="3" transform="matrix(0 -1 -1 0 19 6)" fill="#2C2B2C"/>
<rect width="8" height="3" transform="matrix(0 -1 -1 0 19 25)" fill="#7D7B7A"/>
<rect width="5" height="3" transform="matrix(0 -1 -1 0 13 22)" fill="#7D7B7A"/>
<rect width="5" height="3" transform="matrix(0 -1 -1 0 25 22)" fill="#7D7B7A"/>
<rect width="9" height="9" transform="matrix(0 -1 -1 0 22 18)" fill="#7D7B7A"/>
<rect width="6" height="7" transform="matrix(0 -1 -1 0 21 17)" fill="#9A3516"/>
</g>
<rect width="13" height="15" transform="matrix(0 -1 -1 0 32 31)" fill="#D3D3D3"/>
<rect width="13" height="15" transform="matrix(0 -1 -1 0 32 34)" fill="#B0ABAB"/>
<rect width="13" height="9" transform="matrix(0 -1 -1 0 29 28)" fill="#D3D3D3"/>
<rect width="22" height="9" transform="matrix(0 -1 -1 0 29 37)" fill="#B0ABAB"/>
<rect width="3" height="3" transform="matrix(0 -1 -1 0 23 18)" fill="#2C2B2C"/>
<rect width="3" height="3" transform="matrix(0 -1 -1 0 29 18)" fill="#2C2B2C"/>
<rect width="3" height="3" transform="matrix(0 -1 -1 0 20 21)" fill="#2C2B2C"/>
<rect width="3" height="3" transform="matrix(0 -1 -1 0 20 34)" fill="#2C2B2C"/>
<rect width="3" height="3" transform="matrix(0 -1 -1 0 32 34)" fill="#2C2B2C"/>
<rect width="3" height="3" transform="matrix(0 -1 -1 0 23 37)" fill="#2C2B2C"/>
<rect width="3" height="3" transform="matrix(0 -1 -1 0 29 37)" fill="#2C2B2C"/>
<rect width="3" height="3" transform="matrix(0 -1 -1 0 26 40)" fill="#2C2B2C"/>
<rect width="3" height="3" transform="matrix(0 -1 -1 0 17 37)" fill="#2C2B2C"/>
<rect width="3" height="3" transform="matrix(0 -1 -1 0 14 40)" fill="#2C2B2C"/>
<rect width="6" height="3" transform="matrix(0 -1 -1 0 14 46)" fill="#2C2B2C"/>
<rect width="3" height="3" transform="matrix(0 -1 -1 0 35 37)" fill="#2C2B2C"/>
<rect width="3" height="3" transform="matrix(0 -1 -1 0 38 40)" fill="#2C2B2C"/>
<rect width="6" height="3" transform="matrix(0 -1 -1 0 38 46)" fill="#2C2B2C"/>
<rect width="3" height="3" transform="matrix(0 -1 -1 0 32 21)" fill="#2C2B2C"/>
<rect width="10" height="3" transform="matrix(0 -1 -1 0 17 31)" fill="#2C2B2C"/>
<rect width="10" height="3" transform="matrix(0 -1 -1 0 35 31)" fill="#2C2B2C"/>
<rect width="3" height="3" transform="matrix(0 -1 -1 0 26 15)" fill="#2C2B2C"/>
<rect width="8" height="3" transform="matrix(0 -1 -1 0 26 34)" fill="#7D7B7A"/>
<rect width="5" height="3" transform="matrix(0 -1 -1 0 20 31)" fill="#7D7B7A"/>
<rect width="5" height="3" transform="matrix(0 -1 -1 0 32 31)" fill="#7D7B7A"/>
<rect width="9" height="9" transform="matrix(0 -1 -1 0 29 27)" fill="#7D7B7A"/>
<rect width="6" height="7" transform="matrix(0 -1 -1 0 28 26)" fill="#9A3516"/>
</svg>
