<svg width="48" height="48" viewBox="0 0 48 48" fill="none" xmlns="http://www.w3.org/2000/svg">
<rect width="6" height="6" transform="matrix(0 -1 -1 0 26 27)" fill="#A7AAAF"/>
<rect width="9" height="3" transform="matrix(0 -1 -1 0 17 39)" fill="#DBDBDB"/>
<rect width="9" height="3" transform="matrix(0 -1 -1 0 17 39)" fill="#D0D040"/>
<rect width="10" height="3" transform="matrix(0 -1 -1 0 20 37)" fill="#D0D040"/>
<rect width="3" height="3" transform="matrix(0 -1 -1 0 23 33)" fill="#D0D040"/>
<rect width="9" height="3" transform="matrix(0 -1 -1 0 14 42)" fill="#D0D040"/>
<rect width="6" height="3" transform="matrix(0 -1 -1 0 11 42)" fill="#D0D040"/>
<rect x="20" y="30" width="3" height="6" transform="rotate(-90 20 30)" fill="#2C2B2C"/>
<rect x="5" y="39" width="3" height="3" transform="rotate(-90 5 39)" fill="#2C2B2C"/>
<rect x="5" y="42" width="3" height="3" transform="rotate(-90 5 42)" fill="#2C2B2C"/>
<rect x="8" y="45" width="3" height="3" transform="rotate(-90 8 45)" fill="#2C2B2C"/>
<rect x="11" y="45" width="3" height="3" transform="rotate(-90 11 45)" fill="#2C2B2C"/>
<rect x="14" y="42" width="3" height="3" transform="rotate(-90 14 42)" fill="#2C2B2C"/>
<rect x="20" y="36" width="3" height="3" transform="rotate(-90 20 36)" fill="#2C2B2C"/>
<rect x="17" y="39" width="3" height="3" transform="rotate(-90 17 39)" fill="#2C2B2C"/>
<rect x="20" y="33" width="3" height="3" transform="rotate(-90 20 33)" fill="#2C2B2C"/>
<rect x="8" y="36" width="3" height="3" transform="rotate(-90 8 36)" fill="#2C2B2C"/>
<rect x="11" y="33" width="3" height="3" transform="rotate(-90 11 33)" fill="#2C2B2C"/>
<rect x="14" y="30" width="3" height="3" transform="rotate(-90 14 30)" fill="#2C2B2C"/>
<rect x="38" y="15" width="9" height="3" transform="rotate(180 38 15)" fill="#DBDBDB"/>
<rect x="38" y="15" width="9" height="3" transform="rotate(180 38 15)" fill="#D0D040"/>
<rect x="36" y="18" width="10" height="3" transform="rotate(180 36 18)" fill="#D0D040"/>
<rect x="32" y="21" width="3" height="3" transform="rotate(180 32 21)" fill="#D0D040"/>
<rect x="41" y="12" width="9" height="3" transform="rotate(180 41 12)" fill="#D0D040"/>
<rect x="41" y="9" width="6" height="3" transform="rotate(180 41 9)" fill="#D0D040"/>
<rect width="3" height="9" transform="matrix(-1 0 0 1 29 18)" fill="#2C2B2C"/>
<rect width="3" height="3" transform="matrix(-1 0 0 1 38 3)" fill="#2C2B2C"/>
<rect width="3" height="3" transform="matrix(-1 0 0 1 41 3)" fill="#2C2B2C"/>
<rect width="3" height="3" transform="matrix(-1 0 0 1 44 6)" fill="#2C2B2C"/>
<rect width="3" height="3" transform="matrix(-1 0 0 1 44 9)" fill="#2C2B2C"/>
<rect width="3" height="3" transform="matrix(-1 0 0 1 41 12)" fill="#2C2B2C"/>
<rect width="3" height="3" transform="matrix(-1 0 0 1 35 18)" fill="#2C2B2C"/>
<rect width="3" height="3" transform="matrix(-1 0 0 1 38 15)" fill="#2C2B2C"/>
<rect width="3" height="3" transform="matrix(-1 0 0 1 32 21)" fill="#2C2B2C"/>
<rect width="3" height="3" transform="matrix(-1 0 0 1 35 6)" fill="#2C2B2C"/>
<rect width="3" height="3" transform="matrix(-1 0 0 1 32 9)" fill="#2C2B2C"/>
<rect width="3" height="3" transform="matrix(-1 0 0 1 29 12)" fill="#2C2B2C"/>
<rect width="6" height="3" transform="matrix(0 -1 -1 0 20 27)" fill="#2C2B2C"/>
<rect width="3" height="6" transform="matrix(0 -1 -1 0 26 21)" fill="#2C2B2C"/>
</svg>
