<svg width="48" height="48" viewBox="0 0 48 48" fill="none" xmlns="http://www.w3.org/2000/svg">
<rect width="6" height="6" transform="matrix(0 -1 -1 0 26 27)" fill="#A7AAAF"/>
<rect width="9" height="3" transform="matrix(0 -1 -1 0 17 39)" fill="#DBDBDB"/>
<rect width="9" height="3" transform="matrix(0 -1 -1 0 17 39)" fill="#D0D040"/>
<rect width="10" height="3" transform="matrix(0 -1 -1 0 20 37)" fill="#D0D040"/>
<rect width="3" height="3" transform="matrix(0 -1 -1 0 23 33)" fill="#D0D040"/>
<rect width="9" height="3" transform="matrix(0 -1 -1 0 14 42)" fill="#D0D040"/>
<rect width="6" height="3" transform="matrix(0 -1 -1 0 11 42)" fill="#D0D040"/>
<rect x="20" y="30" width="3" height="6" transform="rotate(-90 20 30)" fill="#2C2B2C"/>
<rect x="5" y="39" width="3" height="3" transform="rotate(-90 5 39)" fill="#2C2B2C"/>
<rect x="5" y="42" width="3" height="3" transform="rotate(-90 5 42)" fill="#2C2B2C"/>
<rect x="8" y="45" width="3" height="3" transform="rotate(-90 8 45)" fill="#2C2B2C"/>
<rect x="11" y="45" width="3" height="3" transform="rotate(-90 11 45)" fill="#2C2B2C"/>
<rect x="14" y="42" width="3" height="3" transform="rotate(-90 14 42)" fill="#2C2B2C"/>
<rect x="20" y="36" width="3" height="3" transform="rotate(-90 20 36)" fill="#2C2B2C"/>
<rect x="17" y="39" width="3" height="3" transform="rotate(-90 17 39)" fill="#2C2B2C"/>
<rect x="20" y="33" width="3" height="3" transform="rotate(-90 20 33)" fill="#2C2B2C"/>
<rect x="8" y="36" width="3" height="3" transform="rotate(-90 8 36)" fill="#2C2B2C"/>
<rect x="11" y="33" width="3" height="3" transform="rotate(-90 11 33)" fill="#2C2B2C"/>
<rect x="14" y="30" width="3" height="3" transform="rotate(-90 14 30)" fill="#2C2B2C"/>
<rect x="38" y="15" width="9" height="3" transform="rotate(180 38 15)" fill="#DBDBDB"/>
<rect x="38" y="15" width="9" height="3" transform="rotate(180 38 15)" fill="#D0D040"/>
<rect x="36" y="18" width="10" height="3" transform="rotate(180 36 18)" fill="#D0D040"/>
<rect x="32" y="21" width="3" height="3" transform="rotate(180 32 21)" fill="#D0D040"/>
<rect x="41" y="12" width="9" height="3" transform="rotate(180 41 12)" fill="#D0D040"/>
<rect x="41" y="9" width="6" height="3" transform="rotate(180 41 9)" fill="#D0D040"/>
<rect width="3" height="9" transform="matrix(-1 0 0 1 29 18)" fill="#2C2B2C"/>
<rect width="3" height="3" transform="matrix(-1 0 0 1 38 3)" fill="#2C2B2C"/>
<rect width="3" height="3" transform="matrix(-1 0 0 1 41 3)" fill="#2C2B2C"/>
<rect width="3" height="3" transform="matrix(-1 0 0 1 44 6)" fill="#2C2B2C"/>
<rect width="3" height="3" transform="matrix(-1 0 0 1 44 9)" fill="#2C2B2C"/>
<rect width="3" height="3" transform="matrix(-1 0 0 1 41 12)" fill="#2C2B2C"/>
<rect width="3" height="3" transform="matrix(-1 0 0 1 35 18)" fill="#2C2B2C"/>
<rect width="3" height="3" transform="matrix(-1 0 0 1 38 15)" fill="#2C2B2C"/>
<rect width="3" height="3" transform="matrix(-1 0 0 1 32 21)" fill="#2C2B2C"/>
<rect width="3" height="3" transform="matrix(-1 0 0 1 35 6)" fill="#2C2B2C"/>
<rect width="3" height="3" transform="matrix(-1 0 0 1 32 9)" fill="#2C2B2C"/>
<rect width="3" height="3" transform="matrix(-1 0 0 1 29 12)" fill="#2C2B2C"/>
<rect width="6" height="3" transform="matrix(0 -1 -1 0 20 27)" fill="#2C2B2C"/>
<rect width="3" height="6" transform="matrix(0 -1 -1 0 26 21)" fill="#2C2B2C"/>
<mask id="path-40-outside-1_43_2715" maskUnits="userSpaceOnUse" x="16" y="26" width="27" height="15" fill="black">
<rect fill="white" x="16" y="26" width="27" height="15"/>
<path d="M20.312 38L22.592 34.58L20.468 31.4H22.472L23.288 32.72C23.352 32.824 23.412 32.94 23.468 33.068C23.524 33.196 23.568 33.3 23.6 33.38C23.632 33.3 23.676 33.196 23.732 33.068C23.796 32.94 23.856 32.824 23.912 32.72L24.728 31.4H26.732L24.62 34.58L26.888 38H24.884L23.924 36.44C23.86 36.328 23.796 36.212 23.732 36.092C23.676 35.964 23.632 35.86 23.6 35.78C23.568 35.86 23.524 35.964 23.468 36.092C23.412 36.212 23.352 36.328 23.288 36.44L22.316 38H20.312ZM28.1553 38V36.44H30.3633V30.884L28.1313 32.54V30.68L30.1833 29.24H32.1633V36.44H33.9153V38H28.1553ZM38.0026 38.12C37.4106 38.12 36.8986 38.012 36.4666 37.796C36.0346 37.572 35.6986 37.264 35.4586 36.872C35.2266 36.472 35.1106 36.008 35.1106 35.48V31.76C35.1106 31.232 35.2266 30.772 35.4586 30.38C35.6986 29.98 36.0346 29.672 36.4666 29.456C36.8986 29.232 37.4066 29.12 37.9906 29.12C38.5826 29.12 39.0906 29.232 39.5146 29.456C39.9466 29.672 40.2786 29.98 40.5106 30.38C40.7506 30.772 40.8706 31.232 40.8706 31.76V35.48C40.8706 36.008 40.7506 36.472 40.5106 36.872C40.2786 37.264 39.9466 37.572 39.5146 37.796C39.0906 38.012 38.5866 38.12 38.0026 38.12ZM37.9906 36.56C38.3666 36.56 38.6586 36.464 38.8666 36.272C39.0826 36.08 39.1906 35.816 39.1906 35.48V31.76C39.1906 31.424 39.0826 31.16 38.8666 30.968C38.6586 30.776 38.3666 30.68 37.9906 30.68C37.6146 30.68 37.3186 30.776 37.1026 30.968C36.8946 31.16 36.7906 31.424 36.7906 31.76V35.48C36.7906 35.816 36.8986 36.08 37.1146 36.272C37.3306 36.464 37.6226 36.56 37.9906 36.56ZM37.9906 34.448C37.7426 34.448 37.5386 34.368 37.3786 34.208C37.2266 34.048 37.1506 33.84 37.1506 33.584C37.1506 33.328 37.2266 33.124 37.3786 32.972C37.5386 32.82 37.7426 32.744 37.9906 32.744C38.2466 32.744 38.4506 32.82 38.6026 32.972C38.7546 33.124 38.8306 33.328 38.8306 33.584C38.8306 33.84 38.7546 34.048 38.6026 34.208C38.4506 34.368 38.2466 34.448 37.9906 34.448Z"/>
</mask>
<path d="M20.312 38L22.592 34.58L20.468 31.4H22.472L23.288 32.72C23.352 32.824 23.412 32.94 23.468 33.068C23.524 33.196 23.568 33.3 23.6 33.38C23.632 33.3 23.676 33.196 23.732 33.068C23.796 32.94 23.856 32.824 23.912 32.72L24.728 31.4H26.732L24.62 34.58L26.888 38H24.884L23.924 36.44C23.86 36.328 23.796 36.212 23.732 36.092C23.676 35.964 23.632 35.86 23.6 35.78C23.568 35.86 23.524 35.964 23.468 36.092C23.412 36.212 23.352 36.328 23.288 36.44L22.316 38H20.312ZM28.1553 38V36.44H30.3633V30.884L28.1313 32.54V30.68L30.1833 29.24H32.1633V36.44H33.9153V38H28.1553ZM38.0026 38.12C37.4106 38.12 36.8986 38.012 36.4666 37.796C36.0346 37.572 35.6986 37.264 35.4586 36.872C35.2266 36.472 35.1106 36.008 35.1106 35.48V31.76C35.1106 31.232 35.2266 30.772 35.4586 30.38C35.6986 29.98 36.0346 29.672 36.4666 29.456C36.8986 29.232 37.4066 29.12 37.9906 29.12C38.5826 29.12 39.0906 29.232 39.5146 29.456C39.9466 29.672 40.2786 29.98 40.5106 30.38C40.7506 30.772 40.8706 31.232 40.8706 31.76V35.48C40.8706 36.008 40.7506 36.472 40.5106 36.872C40.2786 37.264 39.9466 37.572 39.5146 37.796C39.0906 38.012 38.5866 38.12 38.0026 38.12ZM37.9906 36.56C38.3666 36.56 38.6586 36.464 38.8666 36.272C39.0826 36.08 39.1906 35.816 39.1906 35.48V31.76C39.1906 31.424 39.0826 31.16 38.8666 30.968C38.6586 30.776 38.3666 30.68 37.9906 30.68C37.6146 30.68 37.3186 30.776 37.1026 30.968C36.8946 31.16 36.7906 31.424 36.7906 31.76V35.48C36.7906 35.816 36.8986 36.08 37.1146 36.272C37.3306 36.464 37.6226 36.56 37.9906 36.56ZM37.9906 34.448C37.7426 34.448 37.5386 34.368 37.3786 34.208C37.2266 34.048 37.1506 33.84 37.1506 33.584C37.1506 33.328 37.2266 33.124 37.3786 32.972C37.5386 32.82 37.7426 32.744 37.9906 32.744C38.2466 32.744 38.4506 32.82 38.6026 32.972C38.7546 33.124 38.8306 33.328 38.8306 33.584C38.8306 33.84 38.7546 34.048 38.6026 34.208C38.4506 34.368 38.2466 34.448 37.9906 34.448Z" fill="white"/>
<path d="M20.312 38L18.6479 36.8906L16.575 40H20.312V38ZM22.592 34.58L24.2561 35.6894L24.9964 34.579L24.2551 33.4692L22.592 34.58ZM20.468 31.4V29.4H16.7271L18.8049 32.5108L20.468 31.4ZM22.472 31.4L24.1732 30.3484L23.5869 29.4H22.472V31.4ZM23.288 32.72L24.9913 31.6718L24.9892 31.6684L23.288 32.72ZM23.6 33.38L21.743 34.1228L23.6 38.7652L25.457 34.1228L23.6 33.38ZM23.732 33.068L21.9431 32.1736L21.9202 32.2194L21.8997 32.2664L23.732 33.068ZM23.912 32.72L22.2108 31.6684L22.1794 31.7192L22.1511 31.7718L23.912 32.72ZM24.728 31.4V29.4H23.6131L23.0268 30.3484L24.728 31.4ZM26.732 31.4L28.398 32.5065L30.4612 29.4H26.732V31.4ZM24.62 34.58L22.954 33.4735L22.2196 34.5792L22.9532 35.6853L24.62 34.58ZM26.888 38V40H30.6141L28.5548 36.8947L26.888 38ZM24.884 38L23.1807 39.0482L23.7664 40H24.884V38ZM23.924 36.44L22.1875 37.4323L22.2036 37.4605L22.2207 37.4882L23.924 36.44ZM23.732 36.092L21.8997 36.8936L21.9308 36.9647L21.9673 37.0332L23.732 36.092ZM23.6 35.78L25.457 35.0372L23.6 30.3948L21.743 35.0372L23.6 35.78ZM23.468 36.092L25.2804 36.9378L25.2906 36.9158L25.3003 36.8936L23.468 36.092ZM23.288 36.44L24.9855 37.4976L25.0056 37.4653L25.0245 37.4323L23.288 36.44ZM22.316 38V40H23.4263L24.0135 39.0576L22.316 38ZM21.9761 39.1094L24.2561 35.6894L20.9279 33.4706L18.6479 36.8906L21.9761 39.1094ZM24.2551 33.4692L22.1311 30.2892L18.8049 32.5108L20.9289 35.6908L24.2551 33.4692ZM20.468 33.4H22.472V29.4H20.468V33.4ZM20.7708 32.4516L21.5868 33.7716L24.9892 31.6684L24.1732 30.3484L20.7708 32.4516ZM21.5847 33.7682C21.5937 33.7828 21.6117 33.8149 21.6357 33.8696L25.3003 32.2664C25.2123 32.0651 25.1103 31.8652 24.9913 31.6718L21.5847 33.7682ZM21.6357 33.8696C21.6877 33.9885 21.7222 34.0708 21.743 34.1228L25.457 32.6372C25.4138 32.5292 25.3603 32.4035 25.3003 32.2664L21.6357 33.8696ZM25.457 34.1228C25.4778 34.0708 25.5123 33.9885 25.5643 33.8696L21.8997 32.2664C21.8397 32.4035 21.7862 32.5292 21.743 32.6372L25.457 34.1228ZM25.5209 33.9624C25.5776 33.8489 25.6283 33.7512 25.6729 33.6682L22.1511 31.7718C22.0837 31.8968 22.0144 32.0311 21.9431 32.1736L25.5209 33.9624ZM25.6132 33.7716L26.4292 32.4516L23.0268 30.3484L22.2108 31.6684L25.6132 33.7716ZM24.728 33.4H26.732V29.4H24.728V33.4ZM25.066 30.2935L22.954 33.4735L26.286 35.6865L28.398 32.5065L25.066 30.2935ZM22.9532 35.6853L25.2212 39.1053L28.5548 36.8947L26.2868 33.4747L22.9532 35.6853ZM26.888 36H24.884V40H26.888V36ZM26.5873 36.9518L25.6273 35.3918L22.2207 37.4882L23.1807 39.0482L26.5873 36.9518ZM25.6605 35.4477C25.6066 35.3535 25.552 35.2546 25.4967 35.1508L21.9673 37.0332C22.04 37.1694 22.1134 37.3025 22.1875 37.4323L25.6605 35.4477ZM25.5643 35.2904C25.5123 35.1715 25.4778 35.0892 25.457 35.0372L21.743 36.5228C21.7862 36.6308 21.8397 36.7565 21.8997 36.8936L25.5643 35.2904ZM21.743 35.0372C21.7222 35.0892 21.6877 35.1715 21.6357 35.2904L25.3003 36.8936C25.3603 36.7565 25.4138 36.6308 25.457 36.5228L21.743 35.0372ZM21.6556 35.2462C21.6223 35.3177 21.5875 35.3847 21.5515 35.4477L25.0245 37.4323C25.1165 37.2713 25.2017 37.1063 25.2804 36.9378L21.6556 35.2462ZM21.5905 35.3824L20.6185 36.9424L24.0135 39.0576L24.9855 37.4976L21.5905 35.3824ZM22.316 36H20.312V40H22.316V36ZM28.1553 38H26.1553V40H28.1553V38ZM28.1553 36.44V34.44H26.1553V36.44H28.1553ZM30.3633 36.44V38.44H32.3633V36.44H30.3633ZM30.3633 30.884H32.3633V26.9098L29.1716 29.2778L30.3633 30.884ZM28.1313 32.54H26.1313V36.5142L29.323 34.1462L28.1313 32.54ZM28.1313 30.68L26.9825 29.0429L26.1313 29.6402V30.68H28.1313ZM30.1833 29.24V27.24H29.5516L29.0345 27.6029L30.1833 29.24ZM32.1633 29.24H34.1633V27.24H32.1633V29.24ZM32.1633 36.44H30.1633V38.44H32.1633V36.44ZM33.9153 36.44H35.9153V34.44H33.9153V36.44ZM33.9153 38V40H35.9153V38H33.9153ZM30.1553 38V36.44H26.1553V38H30.1553ZM28.1553 38.44H30.3633V34.44H28.1553V38.44ZM32.3633 36.44V30.884H28.3633V36.44H32.3633ZM29.1716 29.2778L26.9396 30.9338L29.323 34.1462L31.555 32.4902L29.1716 29.2778ZM30.1313 32.54V30.68H26.1313V32.54H30.1313ZM29.2802 32.3171L31.3322 30.8771L29.0345 27.6029L26.9825 29.0429L29.2802 32.3171ZM30.1833 31.24H32.1633V27.24H30.1833V31.24ZM30.1633 29.24V36.44H34.1633V29.24H30.1633ZM32.1633 38.44H33.9153V34.44H32.1633V38.44ZM31.9153 36.44V38H35.9153V36.44H31.9153ZM33.9153 36H28.1553V40H33.9153V36ZM36.4666 37.796L35.546 39.5715L35.559 39.5783L35.5722 39.5849L36.4666 37.796ZM35.4586 36.872L33.7286 37.8754L33.7405 37.896L33.7529 37.9163L35.4586 36.872ZM35.4586 30.38L33.7436 29.351L33.7375 29.3614L35.4586 30.38ZM36.4666 29.456L37.3611 31.2449L37.3742 31.2383L37.3873 31.2315L36.4666 29.456ZM39.5146 29.456L38.5804 31.2244L38.6002 31.2348L38.6202 31.2449L39.5146 29.456ZM40.5106 30.38L38.7806 31.3834L38.7925 31.404L38.8049 31.4243L40.5106 30.38ZM40.5106 36.872L38.7956 35.843L38.7895 35.8534L40.5106 36.872ZM39.5146 37.796L40.4225 39.5781L40.4289 39.5748L40.4353 39.5715L39.5146 37.796ZM38.8666 36.272L37.5379 34.7772L37.5239 34.7897L37.5101 34.8024L38.8666 36.272ZM38.8666 30.968L37.5101 32.4376L37.5239 32.4503L37.5379 32.4628L38.8666 30.968ZM37.1026 30.968L35.7739 29.4732L35.7599 29.4857L35.7461 29.4984L37.1026 30.968ZM37.1146 36.272L38.4434 34.7772L38.4434 34.7772L37.1146 36.272ZM37.3786 34.208L35.9286 35.5855L35.9463 35.6041L35.9644 35.6222L37.3786 34.208ZM37.3786 32.972L36.0011 31.522L35.9825 31.5397L35.9644 31.5578L37.3786 32.972ZM38.6026 32.972L40.0168 31.5578L40.0168 31.5578L38.6026 32.972ZM38.0026 36.12C37.6522 36.12 37.4597 36.0565 37.3611 36.0071L35.5722 39.5849C36.3376 39.9675 37.169 40.12 38.0026 40.12V36.12ZM37.3873 36.0205C37.2589 35.9539 37.2028 35.8905 37.1643 35.8277L33.7529 37.9163C34.1944 38.6375 34.8104 39.1901 35.546 39.5715L37.3873 36.0205ZM37.1887 35.8686C37.1574 35.8146 37.1106 35.7064 37.1106 35.48H33.1106C33.1106 36.3096 33.2959 37.1294 33.7286 37.8754L37.1887 35.8686ZM37.1106 35.48V31.76H33.1106V35.48H37.1106ZM37.1106 31.76C37.1106 31.5326 37.1577 31.436 37.1798 31.3986L33.7375 29.3614C33.2956 30.108 33.1106 30.9314 33.1106 31.76H37.1106ZM37.1736 31.409C37.2107 31.3471 37.2566 31.2971 37.3611 31.2449L35.5722 27.6671C34.8127 28.0469 34.1865 28.6129 33.7436 29.351L37.1736 31.409ZM37.3873 31.2315C37.4832 31.1818 37.6634 31.12 37.9906 31.12V27.12C37.1498 27.12 36.314 27.2822 35.546 27.6805L37.3873 31.2315ZM37.9906 31.12C38.3322 31.12 38.5042 31.1841 38.5804 31.2244L40.4489 27.6876C39.6771 27.2799 38.833 27.12 37.9906 27.12V31.12ZM38.6202 31.2449C38.7194 31.2944 38.7535 31.3367 38.7806 31.3834L42.2407 29.3766C41.8038 28.6233 41.1739 28.0496 40.4091 27.6671L38.6202 31.2449ZM38.8049 31.4243C38.8252 31.4575 38.8706 31.5447 38.8706 31.76H42.8706C42.8706 30.9193 42.676 30.0865 42.2163 29.3357L38.8049 31.4243ZM38.8706 31.76V35.48H42.8706V31.76H38.8706ZM38.8706 35.48C38.8706 35.6944 38.8255 35.7932 38.7956 35.843L42.2256 37.901C42.6757 37.1508 42.8706 36.3216 42.8706 35.48H38.8706ZM38.7895 35.8534C38.7613 35.9009 38.7172 35.9566 38.594 36.0205L40.4353 39.5715C41.176 39.1874 41.7959 38.6271 42.2318 37.8906L38.7895 35.8534ZM38.6068 36.0139C38.5207 36.0577 38.3416 36.12 38.0026 36.12V40.12C38.8316 40.12 39.6605 39.9663 40.4225 39.5781L38.6068 36.0139ZM37.9906 38.56C38.7007 38.56 39.5381 38.374 40.2232 37.7416L37.5101 34.8024C37.634 34.688 37.7647 34.6217 37.867 34.588C37.9618 34.5569 38.012 34.56 37.9906 34.56V38.56ZM40.1954 37.7668C40.9093 37.1322 41.1906 36.2849 41.1906 35.48H37.1906C37.1906 35.4338 37.1983 35.3199 37.2585 35.1727C37.3217 35.0184 37.4209 34.8812 37.5379 34.7772L40.1954 37.7668ZM41.1906 35.48V31.76H37.1906V35.48H41.1906ZM41.1906 31.76C41.1906 30.9551 40.9093 30.1078 40.1954 29.4732L37.5379 32.4628C37.4209 32.3588 37.3217 32.2216 37.2585 32.0673C37.1983 31.9201 37.1906 31.8062 37.1906 31.76H41.1906ZM40.2232 29.4984C39.5381 28.866 38.7007 28.68 37.9906 28.68V32.68C38.012 32.68 37.9618 32.6831 37.867 32.652C37.7647 32.6183 37.634 32.552 37.5101 32.4376L40.2232 29.4984ZM37.9906 28.68C37.2758 28.68 36.455 28.8678 35.7739 29.4732L38.4314 32.4628C38.3173 32.5642 38.1981 32.6238 38.1036 32.6544C38.0159 32.6829 37.97 32.68 37.9906 32.68V28.68ZM35.7461 29.4984C35.0513 30.1397 34.7906 30.9794 34.7906 31.76H38.7906C38.7906 31.7976 38.7847 31.9029 38.7294 32.043C38.6713 32.1907 38.5772 32.3287 38.4592 32.4376L35.7461 29.4984ZM34.7906 31.76V35.48H38.7906V31.76H34.7906ZM34.7906 35.48C34.7906 36.2849 35.072 37.1322 35.7859 37.7668L38.4434 34.7772C38.5604 34.8812 38.6596 35.0184 38.7227 35.1727C38.7829 35.3199 38.7906 35.4338 38.7906 35.48H34.7906ZM35.7859 37.7668C36.4595 38.3656 37.2709 38.56 37.9906 38.56V34.56C37.9783 34.56 38.0295 34.5582 38.1203 34.588C38.2174 34.62 38.334 34.68 38.4434 34.7772L35.7859 37.7668ZM37.9906 32.448C38.0838 32.448 38.2226 32.4636 38.3818 32.5261C38.5446 32.5899 38.6846 32.6855 38.7928 32.7938L35.9644 35.6222C36.5373 36.1951 37.2682 36.448 37.9906 36.448V32.448ZM38.8286 32.8305C38.942 32.9498 39.0305 33.0932 39.0862 33.2456C39.14 33.3929 39.1506 33.5138 39.1506 33.584H35.1506C35.1506 34.2647 35.3672 34.9945 35.9286 35.5855L38.8286 32.8305ZM39.1506 33.584C39.1506 33.6533 39.1402 33.7803 39.0818 33.9372C39.0209 34.1006 38.9224 34.2567 38.7928 34.3862L35.9644 31.5578C35.3669 32.1553 35.1506 32.9062 35.1506 33.584H39.1506ZM38.7561 34.422C38.6434 34.5291 38.5041 34.6177 38.3498 34.6752C38.1997 34.7311 38.0722 34.744 37.9906 34.744V30.744C37.2987 30.744 36.5798 30.9722 36.0011 31.522L38.7561 34.422ZM37.9906 34.744C37.9213 34.744 37.7943 34.7336 37.6374 34.6752C37.474 34.6143 37.318 34.5158 37.1884 34.3862L40.0168 31.5578C39.4194 30.9603 38.6684 30.744 37.9906 30.744V34.744ZM37.1884 34.3862C37.0589 34.2567 36.9603 34.1006 36.8995 33.9372C36.841 33.7803 36.8306 33.6533 36.8306 33.584H40.8306C40.8306 32.9062 40.6143 32.1553 40.0168 31.5578L37.1884 34.3862ZM36.8306 33.584C36.8306 33.5138 36.8413 33.3929 36.8951 33.2456C36.9508 33.0932 37.0393 32.9498 37.1526 32.8305L40.0526 35.5855C40.614 34.9945 40.8306 34.2647 40.8306 33.584H36.8306ZM37.1526 32.8305C37.2767 32.6999 37.4329 32.5937 37.6054 32.5261C37.7717 32.4609 37.9101 32.448 37.9906 32.448V36.448C38.6992 36.448 39.4619 36.2074 40.0526 35.5855L37.1526 32.8305Z" fill="black" mask="url(#path-40-outside-1_43_2715)"/>
</svg>
