<svg width="48" height="48" viewBox="0 0 48 48" fill="none" xmlns="http://www.w3.org/2000/svg">
<rect x="7" y="13" width="3" height="14" fill="#2C2B2C"/>
<rect x="10" y="16" width="3" height="3" fill="#2C2B2C"/>
<rect x="34" y="16" width="3" height="3" fill="#2C2B2C"/>
<rect x="37" y="13" width="3" height="14" fill="#2C2B2C"/>
<rect x="10" y="27" width="3" height="8" fill="#2C2B2C"/>
<rect x="34" y="27" width="3" height="9" fill="#2C2B2C"/>
<rect x="32" y="7" width="3" height="17" transform="rotate(90 32 7)" fill="#2C2B2C"/>
<rect x="32" y="40" width="3" height="16" transform="rotate(90 32 40)" fill="#2C2B2C"/>
<rect x="28" y="22" width="3" height="9" transform="rotate(90 28 22)" fill="#2C2B2C"/>
<rect x="28" y="28" width="3" height="6" transform="rotate(90 28 28)" fill="#808080"/>
<rect x="28" y="31" width="6" height="3" transform="rotate(90 28 31)" fill="#636D72"/>
<rect x="28" y="25" width="3" height="7" transform="rotate(90 28 25)" fill="#808080"/>
<rect x="32" y="10" width="3" height="17" transform="rotate(90 32 10)" fill="#6495ED"/>
<rect x="32" y="13" width="3" height="17" transform="rotate(90 32 13)" fill="#0000CD"/>
<rect x="34" y="16" width="3" height="21" transform="rotate(90 34 16)" fill="#0000CD"/>
<rect x="28" y="19" width="3" height="9" transform="rotate(90 28 19)" fill="#0000CD"/>
<rect x="34" y="22" width="3" height="6" transform="rotate(90 34 22)" fill="#0000CD"/>
<rect x="31" y="25" width="6" height="3" transform="rotate(90 31 25)" fill="#0000CD"/>
<rect x="31" y="34" width="3" height="3" transform="rotate(90 31 34)" fill="#0000CD"/>
<rect x="22" y="25" width="3" height="3" transform="rotate(90 22 25)" fill="#0000CD"/>
<rect x="19" y="22" width="3" height="9" transform="rotate(90 19 22)" fill="#A7AAAF"/>
<rect x="19" y="25" width="6" height="3" transform="rotate(90 19 25)" fill="#FEFCFC"/>
<rect x="22" y="31" width="6" height="3" transform="rotate(90 22 31)" fill="#FEFCFC"/>
<rect x="13" y="27" width="3" height="8" transform="rotate(180 13 27)" fill="#A7AAAF"/>
<rect x="16" y="35" width="3" height="10" transform="rotate(180 16 35)" fill="#A7AAAF"/>
<rect x="19" y="40" width="3" height="9" transform="rotate(180 19 40)" fill="#A7AAAF"/>
<rect x="22" y="40" width="3" height="3" transform="rotate(180 22 40)" fill="#A7AAAF"/>
<rect x="25" y="40" width="3" height="9" transform="rotate(180 25 40)" fill="#A7AAAF"/>
<rect x="28" y="40" width="3" height="3" transform="rotate(180 28 40)" fill="#636D72"/>
<rect x="31" y="34" width="3" height="3" transform="rotate(180 31 34)" fill="#636D72"/>
<rect x="34" y="35" width="3" height="7" transform="rotate(180 34 35)" fill="#636D72"/>
<rect x="34" y="28" width="3" height="3" transform="rotate(180 34 28)" fill="#A7AAAF"/>
<rect x="37" y="27" width="3" height="8" transform="rotate(180 37 27)" fill="#636D72"/>
<rect x="31" y="34" width="3" height="3" transform="rotate(180 31 34)" fill="#636D72"/>
<rect x="31" y="40" width="3" height="3" transform="rotate(180 31 40)" fill="#636D72"/>
<rect x="22" y="31" width="3" height="3" transform="rotate(180 22 31)" fill="#A7AAAF"/>
<rect x="15" y="13" width="3" height="5" transform="rotate(90 15 13)" fill="#6495ED"/>
<rect x="37" y="13" width="3" height="5" transform="rotate(90 37 13)" fill="#6495ED"/>
<rect x="15" y="10" width="3" height="5" transform="rotate(90 15 10)" fill="#2C2B2C"/>
<rect x="16" y="40" width="3" height="5" transform="rotate(180 16 40)" fill="#2C2B2C"/>
<rect x="16" y="40" width="3" height="5" transform="rotate(180 16 40)" fill="#2C2B2C"/>
<rect x="34" y="40" width="3" height="5" transform="rotate(180 34 40)" fill="#2C2B2C"/>
<rect x="37" y="10" width="3" height="5" transform="rotate(90 37 10)" fill="#2C2B2C"/>
<rect x="34" y="19" width="3" height="6" transform="rotate(90 34 19)" fill="#2C2B2C"/>
<rect x="19" y="19" width="3" height="6" transform="rotate(90 19 19)" fill="#2C2B2C"/>
<mask id="path-46-outside-1_40_681" maskUnits="userSpaceOnUse" x="23" y="27" width="20" height="13" fill="black">
<rect fill="white" x="23" y="27" width="20" height="13"/>
<path d="M27.312 38L29.592 34.58L27.468 31.4H29.472L30.288 32.72C30.352 32.824 30.412 32.94 30.468 33.068C30.524 33.196 30.568 33.3 30.6 33.38C30.632 33.3 30.676 33.196 30.732 33.068C30.796 32.94 30.856 32.824 30.912 32.72L31.728 31.4H33.732L31.62 34.58L33.888 38H31.884L30.924 36.44C30.86 36.328 30.796 36.212 30.732 36.092C30.676 35.964 30.632 35.86 30.6 35.78C30.568 35.86 30.524 35.964 30.468 36.092C30.412 36.212 30.352 36.328 30.288 36.44L29.316 38H27.312ZM35.0353 38V36.308L37.8193 33.62C38.1473 33.3 38.3913 33.004 38.5513 32.732C38.7193 32.46 38.8033 32.164 38.8033 31.844C38.8033 31.492 38.7073 31.22 38.5153 31.028C38.3313 30.836 38.0753 30.74 37.7473 30.74C37.3873 30.74 37.1033 30.848 36.8953 31.064C36.6953 31.272 36.5953 31.564 36.5953 31.94H34.7953C34.7953 31.364 34.9153 30.868 35.1553 30.452C35.4033 30.028 35.7513 29.7 36.1993 29.468C36.6473 29.236 37.1753 29.12 37.7833 29.12C38.3513 29.12 38.8433 29.228 39.2593 29.444C39.6833 29.652 40.0113 29.944 40.2433 30.32C40.4833 30.696 40.6033 31.14 40.6033 31.652C40.6033 32.22 40.4633 32.764 40.1833 33.284C39.9033 33.804 39.4553 34.348 38.8393 34.916L37.2553 36.38H40.6993V38H35.0353Z"/>
</mask>
<path d="M27.312 38L29.592 34.58L27.468 31.4H29.472L30.288 32.72C30.352 32.824 30.412 32.94 30.468 33.068C30.524 33.196 30.568 33.3 30.6 33.38C30.632 33.3 30.676 33.196 30.732 33.068C30.796 32.94 30.856 32.824 30.912 32.72L31.728 31.4H33.732L31.62 34.58L33.888 38H31.884L30.924 36.44C30.86 36.328 30.796 36.212 30.732 36.092C30.676 35.964 30.632 35.86 30.6 35.78C30.568 35.86 30.524 35.964 30.468 36.092C30.412 36.212 30.352 36.328 30.288 36.44L29.316 38H27.312ZM35.0353 38V36.308L37.8193 33.62C38.1473 33.3 38.3913 33.004 38.5513 32.732C38.7193 32.46 38.8033 32.164 38.8033 31.844C38.8033 31.492 38.7073 31.22 38.5153 31.028C38.3313 30.836 38.0753 30.74 37.7473 30.74C37.3873 30.74 37.1033 30.848 36.8953 31.064C36.6953 31.272 36.5953 31.564 36.5953 31.94H34.7953C34.7953 31.364 34.9153 30.868 35.1553 30.452C35.4033 30.028 35.7513 29.7 36.1993 29.468C36.6473 29.236 37.1753 29.12 37.7833 29.12C38.3513 29.12 38.8433 29.228 39.2593 29.444C39.6833 29.652 40.0113 29.944 40.2433 30.32C40.4833 30.696 40.6033 31.14 40.6033 31.652C40.6033 32.22 40.4633 32.764 40.1833 33.284C39.9033 33.804 39.4553 34.348 38.8393 34.916L37.2553 36.38H40.6993V38H35.0353Z" fill="white"/>
<path d="M27.312 38L25.6479 36.8906L23.575 40H27.312V38ZM29.592 34.58L31.2561 35.6894L31.9964 34.579L31.2551 33.4692L29.592 34.58ZM27.468 31.4V29.4H23.7271L25.8049 32.5108L27.468 31.4ZM29.472 31.4L31.1732 30.3484L30.5869 29.4H29.472V31.4ZM30.288 32.72L31.9913 31.6718L31.9892 31.6684L30.288 32.72ZM30.6 33.38L28.743 34.1228L30.6 38.7652L32.457 34.1228L30.6 33.38ZM30.732 33.068L28.9431 32.1736L28.9202 32.2194L28.8997 32.2664L30.732 33.068ZM30.912 32.72L29.2108 31.6684L29.1794 31.7192L29.1511 31.7718L30.912 32.72ZM31.728 31.4V29.4H30.6131L30.0268 30.3484L31.728 31.4ZM33.732 31.4L35.398 32.5065L37.4612 29.4H33.732V31.4ZM31.62 34.58L29.954 33.4735L29.2196 34.5792L29.9532 35.6853L31.62 34.58ZM33.888 38V40H37.6141L35.5548 36.8947L33.888 38ZM31.884 38L30.1807 39.0482L30.7664 40H31.884V38ZM30.924 36.44L29.1875 37.4323L29.2036 37.4605L29.2207 37.4882L30.924 36.44ZM30.732 36.092L28.8997 36.8936L28.9308 36.9647L28.9673 37.0332L30.732 36.092ZM30.6 35.78L32.457 35.0372L30.6 30.3948L28.743 35.0372L30.6 35.78ZM30.468 36.092L32.2804 36.9378L32.2906 36.9158L32.3003 36.8936L30.468 36.092ZM30.288 36.44L31.9855 37.4976L32.0056 37.4653L32.0245 37.4323L30.288 36.44ZM29.316 38V40H30.4263L31.0135 39.0576L29.316 38ZM28.9761 39.1094L31.2561 35.6894L27.9279 33.4706L25.6479 36.8906L28.9761 39.1094ZM31.2551 33.4692L29.1311 30.2892L25.8049 32.5108L27.9289 35.6908L31.2551 33.4692ZM27.468 33.4H29.472V29.4H27.468V33.4ZM27.7708 32.4516L28.5868 33.7716L31.9892 31.6684L31.1732 30.3484L27.7708 32.4516ZM28.5847 33.7682C28.5937 33.7828 28.6117 33.8149 28.6357 33.8696L32.3003 32.2664C32.2123 32.0651 32.1103 31.8652 31.9913 31.6718L28.5847 33.7682ZM28.6357 33.8696C28.6877 33.9885 28.7222 34.0708 28.743 34.1228L32.457 32.6372C32.4138 32.5292 32.3603 32.4035 32.3003 32.2664L28.6357 33.8696ZM32.457 34.1228C32.4778 34.0708 32.5123 33.9885 32.5643 33.8696L28.8997 32.2664C28.8397 32.4035 28.7862 32.5292 28.743 32.6372L32.457 34.1228ZM32.5209 33.9624C32.5776 33.8489 32.6283 33.7512 32.6729 33.6682L29.1511 31.7718C29.0837 31.8968 29.0144 32.0311 28.9431 32.1736L32.5209 33.9624ZM32.6132 33.7716L33.4292 32.4516L30.0268 30.3484L29.2108 31.6684L32.6132 33.7716ZM31.728 33.4H33.732V29.4H31.728V33.4ZM32.066 30.2935L29.954 33.4735L33.286 35.6865L35.398 32.5065L32.066 30.2935ZM29.9532 35.6853L32.2212 39.1053L35.5548 36.8947L33.2868 33.4747L29.9532 35.6853ZM33.888 36H31.884V40H33.888V36ZM33.5873 36.9518L32.6273 35.3918L29.2207 37.4882L30.1807 39.0482L33.5873 36.9518ZM32.6605 35.4477C32.6066 35.3535 32.552 35.2546 32.4967 35.1508L28.9673 37.0332C29.04 37.1694 29.1134 37.3025 29.1875 37.4323L32.6605 35.4477ZM32.5643 35.2904C32.5123 35.1715 32.4778 35.0892 32.457 35.0372L28.743 36.5228C28.7862 36.6308 28.8397 36.7565 28.8997 36.8936L32.5643 35.2904ZM28.743 35.0372C28.7222 35.0892 28.6877 35.1715 28.6357 35.2904L32.3003 36.8936C32.3603 36.7565 32.4138 36.6308 32.457 36.5228L28.743 35.0372ZM28.6556 35.2462C28.6223 35.3177 28.5875 35.3847 28.5515 35.4477L32.0245 37.4323C32.1165 37.2713 32.2017 37.1063 32.2804 36.9378L28.6556 35.2462ZM28.5905 35.3824L27.6185 36.9424L31.0135 39.0576L31.9855 37.4976L28.5905 35.3824ZM29.316 36H27.312V40H29.316V36ZM35.0353 38H33.0353V40H35.0353V38ZM35.0353 36.308L33.6461 34.8692L33.0353 35.4589V36.308H35.0353ZM37.8193 33.62L39.2085 35.0588L39.216 35.0516L37.8193 33.62ZM38.5513 32.732L36.8497 31.681L36.8384 31.6994L36.8274 31.718L38.5513 32.732ZM38.5153 31.028L37.0713 32.4118L37.0861 32.4272L37.1011 32.4422L38.5153 31.028ZM36.8953 31.064L35.4547 29.6767L35.4536 29.6778L36.8953 31.064ZM36.5953 31.94V33.94H38.5953V31.94H36.5953ZM34.7953 31.94H32.7953V33.94H34.7953V31.94ZM35.1553 30.452L33.4289 29.4422L33.4229 29.4526L35.1553 30.452ZM36.1993 29.468L37.119 31.244L37.119 31.244L36.1993 29.468ZM39.2593 29.444L38.3377 31.219L38.358 31.2295L38.3785 31.2396L39.2593 29.444ZM40.2433 30.32L38.5412 31.3702L38.5493 31.3832L38.5575 31.3961L40.2433 30.32ZM40.1833 33.284L38.4224 32.3358L38.4224 32.3358L40.1833 33.284ZM38.8393 34.916L37.4835 33.4457L37.4818 33.4472L38.8393 34.916ZM37.2553 36.38L35.8978 34.9112L32.1448 38.38H37.2553V36.38ZM40.6993 36.38H42.6993V34.38H40.6993V36.38ZM40.6993 38V40H42.6993V38H40.6993ZM37.0353 38V36.308H33.0353V38H37.0353ZM36.4245 37.7468L39.2085 35.0588L36.4301 32.1812L33.6461 34.8692L36.4245 37.7468ZM39.216 35.0516C39.6192 34.6581 39.9946 34.223 40.2752 33.746L36.8274 31.718C36.788 31.785 36.6754 31.9419 36.4227 32.1884L39.216 35.0516ZM40.2529 33.783C40.6162 33.1948 40.8033 32.5349 40.8033 31.844H36.8033C36.8033 31.8268 36.8059 31.7966 36.8163 31.76C36.8267 31.7234 36.8404 31.6961 36.8497 31.681L40.2529 33.783ZM40.8033 31.844C40.8033 31.1256 40.5985 30.2828 39.9295 29.6138L37.1011 32.4422C36.9729 32.314 36.8904 32.1693 36.8453 32.0416C36.8033 31.9226 36.8033 31.8465 36.8033 31.844H40.8033ZM39.9593 29.6442C39.3134 28.9702 38.4846 28.74 37.7473 28.74V32.74C37.7181 32.74 37.6195 32.7358 37.4831 32.6847C37.3384 32.6304 37.1927 32.5385 37.0713 32.4118L39.9593 29.6442ZM37.7473 28.74C36.9611 28.74 36.114 28.992 35.4547 29.6767L38.336 32.4513C38.2325 32.5588 38.1053 32.6409 37.9752 32.6904C37.8524 32.7371 37.7663 32.74 37.7473 32.74V28.74ZM35.4536 29.6778C34.7969 30.3608 34.5953 31.2093 34.5953 31.94H38.5953C38.5953 31.926 38.5975 31.9846 38.5624 32.087C38.5246 32.1974 38.453 32.3295 38.337 32.4502L35.4536 29.6778ZM36.5953 29.94H34.7953V33.94H36.5953V29.94ZM36.7953 31.94C36.7953 31.6448 36.855 31.5082 36.8877 31.4514L33.4229 29.4526C32.9757 30.2278 32.7953 31.0832 32.7953 31.94H36.7953ZM36.8817 31.4618C36.9333 31.3735 36.9974 31.307 37.119 31.244L35.2796 27.692C34.5053 28.093 33.8733 28.6825 33.4289 29.4422L36.8817 31.4618ZM37.119 31.244C37.2302 31.1864 37.4303 31.12 37.7833 31.12V27.12C36.9203 27.12 36.0645 27.2856 35.2796 27.692L37.119 31.244ZM37.7833 31.12C38.0977 31.12 38.2606 31.179 38.3377 31.219L40.1809 27.669C39.426 27.277 38.6049 27.12 37.7833 27.12V31.12ZM38.3785 31.2396C38.4883 31.2935 38.521 31.3374 38.5412 31.3702L41.9454 29.2698C41.5016 28.5506 40.8783 28.0105 40.1402 27.6484L38.3785 31.2396ZM38.5575 31.3961C38.5633 31.4052 38.6033 31.4636 38.6033 31.652H42.6033C42.6033 30.8164 42.4033 29.9868 41.9292 29.2439L38.5575 31.3961ZM38.6033 31.652C38.6033 31.8756 38.5519 32.0952 38.4224 32.3358L41.9443 34.2322C42.3747 33.4328 42.6033 32.5644 42.6033 31.652H38.6033ZM38.4224 32.3358C38.2815 32.5974 37.9991 32.9703 37.4835 33.4457L40.1951 36.3863C40.9115 35.7257 41.5251 35.0106 41.9443 34.2322L38.4224 32.3358ZM37.4818 33.4472L35.8978 34.9112L38.6128 37.8488L40.1968 36.3848L37.4818 33.4472ZM37.2553 38.38H40.6993V34.38H37.2553V38.38ZM38.6993 36.38V38H42.6993V36.38H38.6993ZM40.6993 36H35.0353V40H40.6993V36Z" fill="black" mask="url(#path-46-outside-1_40_681)"/>
</svg>
