<svg width="48" height="48" viewBox="0 0 48 48" fill="none" xmlns="http://www.w3.org/2000/svg">
<rect x="19" y="30" width="3" height="9" transform="rotate(-90 19 30)" fill="#2C2B2C"/>
<rect x="28" y="33" width="3" height="9" transform="rotate(-90 28 33)" fill="#2C2B2C"/>
<rect x="37" y="30" width="3" height="3" transform="rotate(-90 37 30)" fill="#2C2B2C"/>
<rect x="34" y="27" width="12" height="3" transform="rotate(-90 34 27)" fill="#2C2B2C"/>
<rect x="31" y="15" width="6" height="3" transform="rotate(-90 31 15)" fill="#2C2B2C"/>
<rect x="22" y="27" width="3" height="3" transform="rotate(-90 22 27)" fill="#2C2B2C"/>
<rect x="13" y="45" width="3" height="3" transform="rotate(-90 13 45)" fill="#2C2B2C"/>
<rect x="22" y="12" width="3" height="3" transform="rotate(-90 22 12)" fill="#2C2B2C"/>
<rect x="19" y="9" width="3" height="12" transform="rotate(-90 19 9)" fill="#2C2B2C"/>
<rect x="13" y="14" width="3" height="8" fill="#2C2B2C"/>
<rect x="16" y="22" width="3" height="5" fill="#2C2B2C"/>
<rect x="16" y="9" width="3" height="5" fill="#2C2B2C"/>
<rect x="25" y="12" width="3" height="6" fill="#2C2B2C"/>
<rect x="25" y="18" width="3" height="6" fill="#2C2B2C"/>
<rect x="16" y="27" width="3" height="9" fill="#FFD400"/>
<rect x="13" y="33" width="3" height="9" fill="#FFD400"/>
<rect x="16" y="14" width="3" height="8" fill="#FFD400"/>
<rect x="19" y="14" width="3" height="8" fill="#2C2B2C"/>
<rect x="28" y="9" width="3" height="21" fill="#A7AAAF"/>
<rect x="31" y="15" width="3" height="15" fill="#A7AAAF"/>
<rect x="34" y="27" width="3" height="3" fill="#A7AAAF"/>
<rect x="25" y="9" width="3" height="3" fill="#A7AAAF"/>
<rect x="25" y="24" width="3" height="3" fill="#A7AAAF"/>
<rect x="19" y="9" width="3" height="5" fill="#FFD400"/>
<rect x="19" y="22" width="3" height="5" fill="#FFD400"/>
<rect x="22" y="12" width="3" height="12" fill="#FFD400"/>
<rect x="13" y="27" width="3" height="6" fill="#2C2B2C"/>
<rect x="10" y="33" width="3" height="9" fill="#2C2B2C"/>
<rect x="19" y="30" width="3" height="6" fill="#2C2B2C"/>
<rect x="16" y="36" width="3" height="6" fill="#2C2B2C"/>
</svg>
