<svg width="48" height="48" viewBox="0 0 48 48" fill="none" xmlns="http://www.w3.org/2000/svg">
<rect x="20" y="12" width="3" height="18" fill="#B78A6A"/>
<rect x="40" y="30" width="3" height="32" transform="rotate(90 40 30)" fill="#2C2B2C"/>
<rect x="40" y="33" width="3" height="32" transform="rotate(90 40 33)" fill="#438BCB"/>
<rect x="31" y="36" width="3" height="20" transform="rotate(90 31 36)" fill="#438BCB"/>
<rect x="31" y="36" width="3" height="17" transform="rotate(90 31 36)" fill="#3F7FB5"/>
<rect x="37" y="33" width="3" height="6" transform="rotate(90 37 33)" fill="#3F7FB5"/>
<rect x="26" y="30" width="3" height="27" transform="rotate(180 26 30)" fill="#2C2B2C"/>
<rect x="20" y="30" width="3" height="18" transform="rotate(180 20 30)" fill="#2C2B2C"/>
<rect x="6" y="27" width="3" height="11" transform="rotate(-90 6 27)" fill="#2C2B2C"/>
<rect x="26" y="27" width="3" height="16" transform="rotate(-90 26 27)" fill="#2C2B2C"/>
<rect x="11" y="6" width="3" height="12" transform="rotate(-90 11 6)" fill="#2C2B2C"/>
<rect x="20" y="12" width="3" height="3" transform="rotate(-90 20 12)" fill="#2C2B2C"/>
<rect x="8" y="9" width="3" height="3" transform="rotate(-90 8 9)" fill="#2C2B2C"/>
<rect x="8" y="24" width="4" height="3" transform="rotate(-90 8 24)" fill="#2C2B2C"/>
<rect x="11" y="20" width="4" height="3" transform="rotate(-90 11 20)" fill="#2C2B2C"/>
<rect x="38" y="24" width="3" height="3" transform="rotate(-90 38 24)" fill="#2C2B2C"/>
<rect x="32" y="18" width="3" height="3" transform="rotate(-90 32 18)" fill="#2C2B2C"/>
<rect x="35" y="21" width="3" height="3" transform="rotate(-90 35 21)" fill="#2C2B2C"/>
<rect x="29" y="15" width="3" height="3" transform="rotate(-90 29 15)" fill="#2C2B2C"/>
<rect x="26" y="12" width="3" height="3" transform="rotate(-90 26 12)" fill="#2C2B2C"/>
<rect x="14" y="16" width="3" height="3" transform="rotate(-90 14 16)" fill="#2C2B2C"/>
<rect x="14" y="24" width="8" height="3" transform="rotate(-90 14 24)" fill="#F1F1F1"/>
<rect x="35" y="24" width="3" height="3" transform="rotate(-90 35 24)" fill="#F1F1F1"/>
<rect x="26" y="24" width="12" height="3" transform="rotate(-90 26 24)" fill="#F1F1F1"/>
<rect x="29" y="24" width="9" height="3" transform="rotate(-90 29 24)" fill="#F1F1F1"/>
<rect x="32" y="24" width="6" height="3" transform="rotate(-90 32 24)" fill="#F1F1F1"/>
<rect x="11" y="24" width="4" height="3" transform="rotate(-90 11 24)" fill="#F1F1F1"/>
<rect x="11" y="12" width="3" height="9" transform="rotate(-90 11 12)" fill="#2C2B2C"/>
<rect x="31" y="39" width="3" height="17" transform="rotate(90 31 39)" fill="#2C2B2C"/>
<rect x="37" y="36" width="3" height="6" transform="rotate(90 37 36)" fill="#2C2B2C"/>
<rect x="40" y="33" width="3" height="3" transform="rotate(90 40 33)" fill="#2C2B2C"/>
<rect x="11" y="33" width="3" height="3" transform="rotate(90 11 33)" fill="#2C2B2C"/>
<rect x="14" y="36" width="3" height="3" transform="rotate(90 14 36)" fill="#2C2B2C"/>
<rect x="11" y="6" width="12" height="3" fill="#E04819"/>
</svg>
