<svg width="48" height="48" viewBox="0 0 48 48" fill="none" xmlns="http://www.w3.org/2000/svg">
<rect x="9" y="35" width="3" height="3" fill="#2C2B2C"/>
<rect x="12" y="35" width="3" height="6" fill="#FDAB0C"/>
<rect x="12" y="32" width="3" height="3" fill="#FDAB0C"/>
<rect x="13" y="11" width="3" height="6" fill="#FDAB0C"/>
<rect x="33" y="11" width="3" height="6" fill="#FDAB0C"/>
<rect x="15" y="29" width="18" height="3" fill="#FDAB0C"/>
<rect x="10" y="17" width="29" height="3" fill="#FDAB0C"/>
<rect x="9" y="32" width="3" height="3" fill="#2C2B2C"/>
<rect x="36" y="35" width="3" height="3" fill="#2C2B2C"/>
<rect x="36" y="32" width="3" height="3" fill="#2C2B2C"/>
<rect x="15" y="35" width="3" height="3" fill="#2C2B2C"/>
<rect x="30" y="35" width="3" height="3" fill="#2C2B2C"/>
<rect x="15" y="32" width="18" height="3" fill="#2C2B2C"/>
<rect x="12" y="29" width="3" height="3" fill="#2C2B2C"/>
<rect width="18" height="3" transform="matrix(-1 0 0 1 33 26)" fill="#2C2B2C"/>
<rect width="8" height="3" transform="matrix(-1 0 0 1 18 20)" fill="#2C2B2C"/>
<rect width="3" height="3" transform="matrix(-1 0 0 1 13 14)" fill="#2C2B2C"/>
<rect width="3" height="3" transform="matrix(-1 0 0 1 39 14)" fill="#2C2B2C"/>
<rect width="15" height="3" transform="matrix(-1 0 0 1 22 8)" fill="#39B4EE"/>
<rect width="15" height="3" transform="matrix(-1 0 0 1 42 8)" fill="#39B4EE"/>
<rect width="17" height="3" transform="matrix(-1 0 0 1 33 14)" fill="#2C2B2C"/>
<rect width="9" height="3" transform="matrix(-1 0 0 1 30 20)" fill="#2C2B2C"/>
<rect width="9" height="3" transform="matrix(-1 0 0 1 39 20)" fill="#2C2B2C"/>
<rect width="9" height="3" transform="matrix(-1 0 0 1 39 20)" fill="#2C2B2C"/>
<rect width="3" height="6" transform="matrix(-1 0 0 1 21 20)" fill="#2C2B2C"/>
<rect width="3" height="6" transform="matrix(-1 0 0 1 30 20)" fill="#2C2B2C"/>
<rect width="6" height="3" transform="matrix(-1 0 0 1 27 23)" fill="#39B4EE"/>
<rect width="3" height="3" transform="matrix(-1 0 0 1 10 17)" fill="#2C2B2C"/>
<rect width="3" height="3" transform="matrix(-1 0 0 1 42 17)" fill="#2C2B2C"/>
<rect width="3" height="3" transform="matrix(-1 0 0 1 15 38)" fill="#2C2B2C"/>
<rect x="33" y="35" width="3" height="6" fill="#FDAB0C"/>
<rect x="33" y="32" width="3" height="3" fill="#FDAB0C"/>
<rect x="33" y="29" width="3" height="3" fill="#2C2B2C"/>
<rect width="3" height="3" transform="matrix(-1 0 0 1 36 38)" fill="#2C2B2C"/>
</svg>
