<svg width="48" height="48" viewBox="0 0 48 48" fill="none" xmlns="http://www.w3.org/2000/svg">
<rect x="10" y="9" width="3" height="9" fill="#E04819"/>
<rect x="13" y="15" width="3" height="6" fill="#E04819"/>
<rect x="16" y="18" width="3" height="9" fill="#E04819"/>
<rect x="19" y="24" width="3" height="6" fill="#E04819"/>
<rect x="22" y="27" width="3" height="6" fill="#E04819"/>
<rect x="25" y="30" width="3" height="6" fill="#E04819"/>
<rect x="31" y="33" width="3" height="6" fill="#E04819"/>
<rect x="28" y="33" width="3" height="3" fill="#E04819"/>
<rect x="34" y="36" width="3" height="3" fill="#E04819"/>
<rect width="3" height="9" transform="matrix(-1 0 0 1 10 9)" fill="#2C2B2C"/>
<rect width="3" height="3" transform="matrix(-1 0 0 1 13 18)" fill="#2C2B2C"/>
<rect width="3" height="6" transform="matrix(-1 0 0 1 16 21)" fill="#2C2B2C"/>
<rect width="3" height="6" transform="matrix(-1 0 0 1 19 27)" fill="#2C2B2C"/>
<rect width="3" height="6" transform="matrix(-1 0 0 1 22 30)" fill="#2C2B2C"/>
<rect width="3" height="6" transform="matrix(-1 0 0 1 22 30)" fill="#2C2B2C"/>
<rect width="6" height="3" transform="matrix(-1 0 0 1 31 36)" fill="#2C2B2C"/>
<rect width="6" height="3" transform="matrix(-1 0 0 1 37 39)" fill="#2C2B2C"/>
<rect width="6" height="3" transform="matrix(-1 0 0 1 34 30)" fill="#2C2B2C"/>
<rect width="3" height="3" transform="matrix(-1 0 0 1 19 15)" fill="#2C2B2C"/>
<rect width="3" height="3" transform="matrix(-1 0 0 1 28 11)" fill="#5FA4CA"/>
<rect width="3" height="3" transform="matrix(-1 0 0 1 31 8)" fill="#5FA4CA"/>
<rect width="3" height="3" transform="matrix(-1 0 0 1 40 25)" fill="#5FA4CA"/>
<rect width="3" height="3" transform="matrix(-1 0 0 1 43 22)" fill="#5FA4CA"/>
<rect width="9" height="3" transform="matrix(-1 0 0 1 40 11)" fill="#5FA4CA"/>
<rect width="6" height="3" transform="matrix(-1 0 0 1 8 39)" fill="#5FA4CA"/>
<rect width="3" height="3" transform="matrix(-1 0 0 1 11 36)" fill="#5FA4CA"/>
<rect width="6" height="3" transform="matrix(-1 0 0 1 17 39)" fill="#5FA4CA"/>
<rect width="3" height="6" transform="matrix(-1 0 0 1 22 18)" fill="#2C2B2C"/>
<rect width="3" height="6" transform="matrix(-1 0 0 1 16 9)" fill="#2C2B2C"/>
<rect width="3" height="3" transform="matrix(-1 0 0 1 25 24)" fill="#2C2B2C"/>
<rect width="3" height="3" transform="matrix(-1 0 0 1 28 27)" fill="#2C2B2C"/>
<rect width="3" height="3" transform="matrix(-1 0 0 1 37 33)" fill="#2C2B2C"/>
<rect width="3" height="3" transform="matrix(-1 0 0 1 40 36)" fill="#2C2B2C"/>
<rect width="3" height="3" transform="matrix(-1 0 0 1 13 6)" fill="#2C2B2C"/>
<rect width="3" height="3" transform="matrix(-1 0 0 1 25 33)" fill="#2C2B2C"/>
</svg>
