<svg width="48" height="48" viewBox="0 0 48 48" fill="none" xmlns="http://www.w3.org/2000/svg">
<rect x="16" y="40" width="3" height="13" transform="rotate(90 16 40)" fill="#2C2B2C"/>
<rect x="6" y="35" width="3" height="3" transform="rotate(90 6 35)" fill="#2C2B2C"/>
<rect x="7" y="33" width="3" height="3" transform="rotate(90 7 33)" fill="#2C2B2C"/>
<rect x="13" y="38" width="2" height="7" transform="rotate(90 13 38)" fill="#090969"/>
<rect x="13" y="34" width="4" height="6" transform="rotate(90 13 34)" fill="#3333DF"/>
<rect x="16" y="18" width="16" height="6" transform="rotate(90 16 18)" fill="#3333DF"/>
<rect x="19" y="12" width="6" height="6" transform="rotate(90 19 12)" fill="#C0C0DD"/>
<rect x="15" y="12" width="2" height="2" transform="rotate(90 15 12)" fill="#737387"/>
<rect x="19" y="15" width="2" height="2" transform="rotate(90 19 15)" fill="#737387"/>
<rect x="20" y="13" width="2" height="2" transform="rotate(90 20 13)" fill="#737387"/>
<rect x="22" y="8" width="6" height="6" transform="rotate(90 22 8)" fill="#C0C0DD"/>
<rect x="17" y="11" width="2" height="2" transform="rotate(90 17 11)" fill="#75758A"/>
<rect x="17" y="11" width="2" height="2" transform="rotate(90 17 11)" fill="#75758A"/>
<rect x="18" y="9" width="2" height="2" transform="rotate(90 18 9)" fill="#75758A"/>
<rect x="18" y="9" width="2" height="2" transform="rotate(90 18 9)" fill="#75758A"/>
<rect x="19" y="8" width="2" height="2" transform="rotate(90 19 8)" fill="#75758A"/>
<rect x="19" y="8" width="2" height="2" transform="rotate(90 19 8)" fill="#75758A"/>
<rect x="32" y="6" width="6" height="15" transform="rotate(90 32 6)" fill="#C0C0DD"/>
<rect x="20" y="7" width="3" height="3" transform="rotate(90 20 7)" fill="#767689"/>
<rect x="21" y="4" width="3" height="3" transform="rotate(90 21 4)" fill="#767689"/>
<rect x="29" y="4" width="3" height="9" transform="rotate(90 29 4)" fill="#767689"/>
<rect x="26" y="11" width="1" height="7" transform="rotate(90 26 11)" fill="#767689"/>
<rect x="38" y="12" width="5" height="12" transform="rotate(90 38 12)" fill="#C0C0DD"/>
<rect x="27" y="11" width="1" height="5" transform="rotate(90 27 11)" fill="#6D6D83"/>
<rect x="30" y="13" width="4" height="4" transform="rotate(90 30 13)" fill="#6D6D83"/>
<rect x="38" y="12" width="5" height="4" transform="rotate(90 38 12)" fill="#6D6D83"/>
<rect x="38" y="17" width="6" height="9" transform="rotate(90 38 17)" fill="#C0C0DD"/>
<rect x="36" y="23" width="14" height="9" transform="rotate(90 36 23)" fill="#3333DF"/>
<rect x="42" y="23" width="14" height="8" transform="rotate(90 42 23)" fill="#3333DF"/>
<rect x="42" y="27" width="14" height="8" transform="rotate(90 42 27)" fill="#3333DF"/>
<rect x="32" y="37" width="4" height="3" transform="rotate(90 32 37)" fill="#636D72"/>
<rect x="7" y="36" width="2" height="1" transform="rotate(90 7 36)" fill="#3333DF" fill-opacity="0.87451"/>
<rect width="4" height="3" transform="matrix(0 -1 -1 0 16 40)" fill="#2C2B2C"/>
<rect width="16" height="3" transform="matrix(0 -1 -1 0 10 34)" fill="#2C2B2C"/>
<rect width="16" height="3" transform="matrix(0 -1 -1 0 10 34)" fill="#2C2B2C"/>
<rect width="6" height="3" transform="matrix(0 -1 -1 0 13 18)" fill="#2C2B2C"/>
<rect width="3" height="3" transform="matrix(0 -1 -1 0 16 12)" fill="#2C2B2C"/>
<rect width="3" height="3" transform="matrix(0 -1 -1 0 19 9)" fill="#2C2B2C"/>
<rect width="3" height="3" transform="matrix(0 -1 -1 0 20 17)" fill="#2C2B2C"/>
<rect width="3" height="3" transform="matrix(0 -1 -1 0 22 15)" fill="#2C2B2C"/>
<rect width="3" height="6" transform="matrix(0 -1 -1 0 27 12)" fill="#2C2B2C"/>
<rect width="3" height="12" transform="matrix(0 -1 -1 0 30 6)" fill="#2C2B2C"/>
<rect width="3" height="3" transform="matrix(0 -1 -1 0 29 17)" fill="#2C2B2C"/>
<rect width="3" height="3" transform="matrix(0 -1 -1 0 27 15)" fill="#2C2B2C"/>
<rect width="3" height="3" transform="matrix(0 -1 -1 0 32 20)" fill="#2C2B2C"/>
<rect width="3" height="3" transform="matrix(0 -1 -1 0 30 26)" fill="#2C2B2C"/>
<rect width="11" height="3" transform="matrix(0 -1 -1 0 27 37)" fill="#2C2B2C"/>
<rect width="3" height="3" transform="matrix(0 -1 -1 0 42 26)" fill="#2C2B2C"/>
<rect width="3" height="3" transform="matrix(0 -1 -1 0 45 29)" fill="#2C2B2C"/>
<rect width="3" height="3" transform="matrix(0 -1 -1 0 45 32)" fill="#2C2B2C"/>
<rect width="11" height="3" transform="matrix(0 -1 -1 0 39 37)" fill="#2C2B2C"/>
<rect width="5" height="3" transform="matrix(0 -1 -1 0 45 37)" fill="#2C2B2C"/>
<rect width="5" height="3" transform="matrix(0 -1 -1 0 42 41)" fill="#2C2B2C"/>
<rect width="3" height="3" transform="matrix(0 -1 -1 0 29 40)" fill="#2C2B2C"/>
<rect width="3" height="3" transform="matrix(0 -1 -1 0 32 37)" fill="#2C2B2C"/>
<rect width="3" height="3" transform="matrix(0 -1 -1 0 35 40)" fill="#2C2B2C"/>
<rect width="3" height="3" transform="matrix(0 -1 -1 0 35 43)" fill="#2C2B2C"/>
<rect width="3" height="9" transform="matrix(0 -1 -1 0 35 44)" fill="#2C2B2C"/>
<rect width="3" height="9" transform="matrix(0 -1 -1 0 42 44)" fill="#2C2B2C"/>
<rect width="3" height="3" transform="matrix(0 -1 -1 0 29 43)" fill="#2C2B2C"/>
<rect width="3" height="3" transform="matrix(0 -1 -1 0 32 9)" fill="#2C2B2C"/>
<rect width="3" height="3" transform="matrix(0 -1 -1 0 35 12)" fill="#2C2B2C"/>
<rect width="8" height="3" transform="matrix(0 -1 -1 0 38 20)" fill="#2C2B2C"/>
<rect width="3" height="12" transform="matrix(0 -1 -1 0 39 23)" fill="#2C2B2C"/>
<rect width="3" height="3" transform="matrix(0 -1 -1 0 19 20)" fill="#2C2B2C"/>
<rect width="16" height="3" transform="matrix(0 -1 -1 0 16 36)" fill="#2C2B2C"/>
<rect width="2" height="3" transform="matrix(0 -1 -1 0 6 40)" fill="#2C2B2C"/>
</svg>
