<svg width="48" height="48" viewBox="0 0 48 48" fill="none" xmlns="http://www.w3.org/2000/svg">
<rect width="3" height="9" transform="matrix(-1 0 0 1 20 33)" fill="#2C2B2C"/>
<rect width="3" height="6" transform="matrix(-1 0 0 1 20 24)" fill="#2C2B2C"/>
<rect width="3" height="8" transform="matrix(-1 0 0 1 14 21)" fill="#2C2B2C"/>
<rect width="3" height="11" transform="matrix(-1 0 0 1 8 18)" fill="#2C2B2C"/>
<rect width="3" height="9" transform="matrix(-1 0 0 1 20 6)" fill="#2C2B2C"/>
<rect width="3" height="9" transform="matrix(-1 0 0 1 32 6)" fill="#2C2B2C"/>
<rect width="3" height="15" transform="matrix(0 -1 -1 0 32 45)" fill="#2C2B2C"/>
<rect width="3" height="15" transform="matrix(0 -1 -1 0 32 33)" fill="#2C2B2C"/>
<rect width="3" height="9" transform="matrix(0 -1 -1 0 29 6)" fill="#2C2B2C"/>
<rect width="3" height="3" transform="matrix(0 -1 -1 0 20 24)" fill="#2C2B2C"/>
<rect width="3" height="12" transform="matrix(0 -1 -1 0 20 18)" fill="#2C2B2C"/>
<rect width="3" height="3" transform="matrix(0 -1 -1 0 11 32)" fill="#2C2B2C"/>
<rect width="3" height="9" transform="matrix(-1 0 0 1 26 33)" fill="#2C2B2C"/>
<rect width="3" height="9" transform="matrix(-1 0 0 1 32 33)" fill="#2C2B2C"/>
<rect width="3" height="9" transform="matrix(-1 0 0 1 32 21)" fill="#2C2B2C"/>
<rect x="20" y="33" width="3" height="9" fill="#A3A3A3"/>
<rect x="26" y="33" width="3" height="9" fill="#A3A3A3"/>
<rect x="20" y="21" width="9" height="9" fill="#A3A3A3"/>
<rect x="8" y="18" width="18" height="3" fill="#A3A3A3"/>
<rect x="20" y="24" width="3" height="6" fill="#D3D3D3"/>
<rect x="20" y="6" width="9" height="9" fill="#8A8888"/>
<rect x="8" y="21" width="3" height="8" fill="#A3A3A3"/>
<rect x="8" y="26" width="3" height="3" fill="#D3D3D3"/>
<rect x="35" y="21" width="3" height="8" fill="#2C2B2C"/>
<rect x="41" y="18" width="3" height="11" fill="#2C2B2C"/>
<rect x="20" y="18" width="3" height="21" transform="rotate(-90 20 18)" fill="#2C2B2C"/>
<rect x="38" y="32" width="3" height="3" transform="rotate(-90 38 32)" fill="#2C2B2C"/>
<rect width="18" height="3" transform="matrix(-1 0 0 1 41 18)" fill="#A3A3A3"/>
<rect width="3" height="8" transform="matrix(-1 0 0 1 41 21)" fill="#A3A3A3"/>
<rect x="26" y="39" width="3" height="3" fill="#D3D3D3"/>
<rect x="38" y="26" width="3" height="3" fill="#D3D3D3"/>
<rect x="20" y="39" width="3" height="3" fill="#D3D3D3"/>
<rect x="26" y="7" width="3" height="3" fill="#C4C4C4"/>
<rect x="23" y="12" width="3" height="3" fill="#C4C4C4"/>
<rect x="20" y="7" width="3" height="3" fill="#C4C4C4"/>
</svg>
