<svg width="48" height="48" viewBox="0 0 48 48" fill="none" xmlns="http://www.w3.org/2000/svg">
<rect width="21" height="3" transform="matrix(0 -1 -1 0 10 36)" fill="#2C2B2C"/>
<rect width="21" height="3" transform="matrix(0 -1 -1 0 31 36)" fill="#2C2B2C"/>
<rect width="21" height="3" transform="matrix(0 -1 -1 0 39 39)" fill="#2C2B2C"/>
<rect width="3" height="18" transform="matrix(0 -1 -1 0 28 39)" fill="#2C2B2C"/>
<rect width="3" height="18" transform="matrix(0 -1 -1 0 28 12)" fill="#2C2B2C"/>
<rect width="3" height="12" transform="matrix(0 -1 -1 0 25 21)" fill="#2C2B2C"/>
<rect width="3" height="5" transform="matrix(0 -1 -1 0 36 18)" fill="#2C2B2C"/>
<rect width="3" height="5" transform="matrix(0 -1 -1 0 36 15)" fill="#5FA4CA"/>
<rect width="3" height="3" transform="matrix(0 -1 -1 0 28 21)" fill="#5FA4CA"/>
<rect width="3" height="3" transform="matrix(0 -1 -1 0 13 21)" fill="#5FA4CA"/>
<rect width="3" height="3" transform="matrix(0 -1 -1 0 13 21)" fill="#5FA4CA"/>
<rect width="3" height="18" transform="matrix(0 -1 -1 0 28 15)" fill="#5FA4CA"/>
<rect width="15" height="18" transform="matrix(0 -1 -1 0 28 36)" fill="#5FA4CA"/>
<rect width="3" height="12" transform="matrix(0 -1 -1 0 25 18)" fill="#5FA4CA"/>
<rect width="3" height="6" transform="matrix(0 -1 -1 0 42 18)" fill="#5FA4CA"/>
<rect width="21" height="3" transform="matrix(0 -1 -1 0 42 39)" fill="#5FA4CA"/>
<rect width="3" height="3" transform="matrix(0 -1 -1 0 13 18)" fill="#2C2B2C"/>
<rect width="3" height="3" transform="matrix(0 -1 -1 0 10 15)" fill="#2C2B2C"/>
<rect width="3" height="3" transform="matrix(0 -1 -1 0 28 18)" fill="#2C2B2C"/>
<rect width="3" height="3" transform="matrix(0 -1 -1 0 31 15)" fill="#2C2B2C"/>
<rect width="6" height="3" transform="matrix(0 -1 -1 0 16 32)" fill="#2F7036"/>
<rect width="3" height="3" transform="matrix(0 -1 -1 0 19 35)" fill="#2F7036"/>
<rect width="3" height="3" transform="matrix(0 -1 -1 0 22 26)" fill="#2F7036"/>
<rect width="6" height="3" transform="matrix(0 -1 -1 0 25 32)" fill="#2F7036"/>
</svg>
