<svg width="48" height="48" viewBox="0 0 48 48" fill="none" xmlns="http://www.w3.org/2000/svg">
<rect width="21" height="3" transform="matrix(0 -1 -1 0 15 36)" fill="#2C2B2C"/>
<rect width="21" height="3" transform="matrix(0 -1 -1 0 36 36)" fill="#2C2B2C"/>
<rect width="3" height="18" transform="matrix(0 -1 -1 0 33 39)" fill="#2C2B2C"/>
<rect width="3" height="18" transform="matrix(0 -1 -1 0 33 12)" fill="#2C2B2C"/>
<rect width="3" height="12" transform="matrix(0 -1 -1 0 30 21)" fill="#2C2B2C"/>
<rect width="3" height="12" transform="matrix(0 -1 -1 0 30 21)" fill="#2C2B2C"/>
<rect width="3" height="6" transform="matrix(0 -1 -1 0 42 33)" fill="#2C2B2C"/>
<rect width="3" height="6" transform="matrix(0 -1 -1 0 42 36)" fill="#0000CD"/>
<rect width="3" height="6" transform="matrix(0 -1 -1 0 42 39)" fill="#2C2B2C"/>
<rect width="6" height="3" transform="matrix(0 -1 -1 0 45 39)" fill="#2C2B2C"/>
<rect x="6" y="33" width="3" height="6" transform="rotate(-90 6 33)" fill="#2C2B2C"/>
<rect x="6" y="36" width="3" height="6" transform="rotate(-90 6 36)" fill="#0000CD"/>
<rect x="6" y="39" width="3" height="6" transform="rotate(-90 6 39)" fill="#2C2B2C"/>
<rect x="6" y="39" width="3" height="6" transform="rotate(-90 6 39)" fill="#2C2B2C"/>
<rect x="3" y="39" width="6" height="3" transform="rotate(-90 3 39)" fill="#2C2B2C"/>
<rect width="3" height="3" transform="matrix(0 -1 -1 0 33 21)" fill="#0000CD"/>
<rect width="3" height="3" transform="matrix(0 -1 -1 0 18 21)" fill="#5FA4CA"/>
<rect width="3" height="3" transform="matrix(0 -1 -1 0 18 21)" fill="#0000CD"/>
<rect width="3" height="18" transform="matrix(0 -1 -1 0 33 15)" fill="#0000CD"/>
<rect width="15" height="18" transform="matrix(0 -1 -1 0 33 36)" fill="#0000CD"/>
<rect width="6" height="3" transform="matrix(0 -1 -1 0 21 27)" fill="#2C2B2C"/>
<rect width="6" height="6" transform="matrix(0 -1 -1 0 27 27)" fill="#A3A3A3"/>
<rect width="3" height="6" transform="matrix(0 -1 -1 0 27 30)" fill="#2C2B2C"/>
<rect width="6" height="3" transform="matrix(0 -1 -1 0 30 27)" fill="#2C2B2C"/>
<rect width="3" height="12" transform="matrix(0 -1 -1 0 30 18)" fill="#0000CD"/>
<rect width="3" height="3" transform="matrix(0 -1 -1 0 18 18)" fill="#2C2B2C"/>
<rect width="3" height="3" transform="matrix(0 -1 -1 0 15 15)" fill="#2C2B2C"/>
<rect width="3" height="3" transform="matrix(0 -1 -1 0 33 18)" fill="#2C2B2C"/>
<rect width="3" height="3" transform="matrix(0 -1 -1 0 36 15)" fill="#2C2B2C"/>
</svg>
