<svg width="128" height="128" viewBox="0 0 128 128" fill="none" xmlns="http://www.w3.org/2000/svg">
<g filter="url(#filter0_d_75_60)">
<mask id="path-1-outside-1_75_60" maskUnits="userSpaceOnUse" x="15" y="2" width="98" height="121" fill="black">
<rect fill="white" x="15" y="2" width="98" height="121"/>
<path d="M28.7331 121L17.9211 4.93H37.4781L43.3611 82.522C43.4671 84.006 43.5731 86.126 43.6791 88.882C43.7851 91.532 43.8911 94.341 43.9971 97.309C44.2091 100.171 44.3151 102.768 44.3151 105.1C44.5271 102.768 44.7391 100.171 44.9511 97.309C45.2691 94.341 45.5871 91.532 45.9051 88.882C46.2231 86.126 46.4351 84.006 46.5411 82.522L55.1271 4.93H73.2531L81.5211 82.522C81.7331 84.006 81.9451 86.126 82.1571 88.882C82.4751 91.532 82.7931 94.341 83.1111 97.309C83.5351 100.171 83.8531 102.768 84.0651 105.1C84.1711 102.768 84.2771 100.171 84.3831 97.309C84.4891 94.341 84.5951 91.532 84.7011 88.882C84.8071 86.126 84.9131 84.006 85.0191 82.522L90.4251 4.93H110.141L98.5341 121H73.7301L65.9391 43.885C65.7271 42.083 65.5151 39.751 65.3031 36.889C65.0911 33.921 64.8791 30.847 64.6671 27.667C64.4551 24.487 64.2431 21.678 64.0311 19.24C63.9251 21.678 63.7661 24.487 63.5541 27.667C63.3421 30.847 63.1301 33.921 62.9181 36.889C62.7061 39.751 62.4941 42.083 62.2821 43.885L53.6961 121H28.7331Z"/>
</mask>
<path d="M28.7331 121L17.9211 4.93H37.4781L43.3611 82.522C43.4671 84.006 43.5731 86.126 43.6791 88.882C43.7851 91.532 43.8911 94.341 43.9971 97.309C44.2091 100.171 44.3151 102.768 44.3151 105.1C44.5271 102.768 44.7391 100.171 44.9511 97.309C45.2691 94.341 45.5871 91.532 45.9051 88.882C46.2231 86.126 46.4351 84.006 46.5411 82.522L55.1271 4.93H73.2531L81.5211 82.522C81.7331 84.006 81.9451 86.126 82.1571 88.882C82.4751 91.532 82.7931 94.341 83.1111 97.309C83.5351 100.171 83.8531 102.768 84.0651 105.1C84.1711 102.768 84.2771 100.171 84.3831 97.309C84.4891 94.341 84.5951 91.532 84.7011 88.882C84.8071 86.126 84.9131 84.006 85.0191 82.522L90.4251 4.93H110.141L98.5341 121H73.7301L65.9391 43.885C65.7271 42.083 65.5151 39.751 65.3031 36.889C65.0911 33.921 64.8791 30.847 64.6671 27.667C64.4551 24.487 64.2431 21.678 64.0311 19.24C63.9251 21.678 63.7661 24.487 63.5541 27.667C63.3421 30.847 63.1301 33.921 62.9181 36.889C62.7061 39.751 62.4941 42.083 62.2821 43.885L53.6961 121H28.7331Z" fill="#FBFBFA"/>
<path d="M28.7331 121L26.7417 121.185L26.9107 123H28.7331V121ZM17.9211 4.93V2.93H15.7261L15.9297 5.1155L17.9211 4.93ZM37.4781 4.93L39.4723 4.77879L39.3322 2.93H37.4781V4.93ZM43.3611 82.522L45.356 82.3795L45.3553 82.3708L43.3611 82.522ZM43.6791 88.882L41.6805 88.9589L41.6807 88.9619L43.6791 88.882ZM43.9971 97.309L41.9983 97.3804L41.9997 97.4186L42.0025 97.4567L43.9971 97.309ZM44.3151 105.1H42.3151L46.3068 105.281L44.3151 105.1ZM44.9511 97.309L42.9624 97.0959L42.9589 97.1285L42.9565 97.1613L44.9511 97.309ZM45.9051 88.882L47.8908 89.1203L47.8919 89.1112L45.9051 88.882ZM46.5411 82.522L44.5532 82.302L44.5489 82.3407L44.5461 82.3795L46.5411 82.522ZM55.1271 4.93V2.93H53.3362L53.1392 4.71003L55.1271 4.93ZM73.2531 4.93L75.2418 4.71808L75.0513 2.93H73.2531V4.93ZM81.5211 82.522L79.5323 82.7339L79.5361 82.7695L79.5412 82.8048L81.5211 82.522ZM82.1571 88.882L80.163 89.0354L80.1662 89.0779L80.1713 89.1203L82.1571 88.882ZM83.1111 97.309L81.1224 97.5221L81.1267 97.5622L81.1327 97.6021L83.1111 97.309ZM84.0651 105.1L82.0733 105.281L86.063 105.191L84.0651 105.1ZM84.3831 97.309L86.3817 97.383L86.3818 97.3804L84.3831 97.309ZM84.7011 88.882L86.6995 88.9619L86.6996 88.9589L84.7011 88.882ZM85.0191 82.522L87.014 82.6645L87.0142 82.661L85.0191 82.522ZM90.4251 4.93V2.93H88.5596L88.4299 4.79099L90.4251 4.93ZM110.141 4.93L112.131 5.129L112.351 2.93H110.141V4.93ZM98.5341 121V123H100.344L100.524 121.199L98.5341 121ZM73.7301 121L71.7402 121.201L71.9219 123H73.7301V121ZM65.9391 43.885L67.9289 43.684L67.9273 43.6676L67.9254 43.6513L65.9391 43.885ZM65.3031 36.889L63.3081 37.0315L63.3085 37.0367L65.3031 36.889ZM64.6671 27.667L62.6715 27.8L62.6715 27.8L64.6671 27.667ZM64.0311 19.24L66.0235 19.0667L62.0329 19.1531L64.0311 19.24ZM63.5541 27.667L65.5496 27.8L65.5496 27.8L63.5541 27.667ZM62.9181 36.889L64.9126 37.0367L64.913 37.0315L62.9181 36.889ZM62.2821 43.885L60.2957 43.6513L60.2943 43.6637L62.2821 43.885ZM53.6961 121V123H55.4857L55.6838 121.221L53.6961 121ZM30.7244 120.815L19.9124 4.7445L15.9297 5.1155L26.7417 121.185L30.7244 120.815ZM17.9211 6.93H37.4781V2.93H17.9211V6.93ZM35.4838 5.0812L41.3668 82.6732L45.3553 82.3708L39.4723 4.77879L35.4838 5.0812ZM41.3661 82.6645C41.4698 84.1155 41.5748 86.2097 41.6805 88.9589L45.6776 88.8051C45.5713 86.0423 45.4643 83.8965 45.356 82.3795L41.3661 82.6645ZM41.6807 88.9619C41.7865 91.6088 41.8924 94.4149 41.9983 97.3804L45.9958 97.2376C45.8897 94.2671 45.7836 91.4552 45.6775 88.8021L41.6807 88.9619ZM42.0025 97.4567C42.2117 100.28 42.3151 102.827 42.3151 105.1H46.3151C46.3151 102.709 46.2064 100.062 45.9916 97.1613L42.0025 97.4567ZM46.3068 105.281C46.52 102.936 46.7329 100.327 46.9456 97.4567L42.9565 97.1613C42.7452 100.015 42.5341 102.6 42.3233 104.919L46.3068 105.281ZM46.9397 97.5221C47.2569 94.5615 47.5739 91.761 47.8908 89.1203L43.9193 88.6437C43.6002 91.303 43.2812 94.1205 42.9624 97.0959L46.9397 97.5221ZM47.8919 89.1112C48.2109 86.3464 48.4268 84.1923 48.536 82.6645L44.5461 82.3795C44.4433 83.8197 44.2352 85.9055 43.9182 88.6528L47.8919 89.1112ZM48.5289 82.742L57.1149 5.14997L53.1392 4.71003L44.5532 82.302L48.5289 82.742ZM55.1271 6.93H73.2531V2.93H55.1271V6.93ZM71.2643 5.14191L79.5323 82.7339L83.5098 82.3101L75.2418 4.71808L71.2643 5.14191ZM79.5412 82.8048C79.7439 84.2241 79.952 86.2932 80.163 89.0354L84.1512 88.7286C83.9381 85.9588 83.7222 83.7879 83.501 82.2392L79.5412 82.8048ZM80.1713 89.1203C80.4882 91.761 80.8052 94.5615 81.1224 97.5221L85.0997 97.0959C84.7809 94.1205 84.4619 91.303 84.1428 88.6437L80.1713 89.1203ZM81.1327 97.6021C81.5524 100.435 81.8654 102.994 82.0733 105.281L86.0568 104.919C85.8408 102.542 85.5178 99.9068 85.0895 97.0159L81.1327 97.6021ZM86.063 105.191C86.1693 102.852 86.2755 100.249 86.3817 97.383L82.3844 97.235C82.2786 100.093 82.1728 102.684 82.0671 105.009L86.063 105.191ZM86.3818 97.3804C86.4877 94.4149 86.5936 91.6088 86.6995 88.9619L82.7027 88.8021C82.5965 91.4552 82.4904 94.2671 82.3843 97.2376L86.3818 97.3804ZM86.6996 88.9589C86.8053 86.2097 86.9103 84.1155 87.014 82.6645L83.0241 82.3795C82.9158 83.8965 82.8088 86.0423 82.7025 88.8051L86.6996 88.9589ZM87.0142 82.661L92.4202 5.069L88.4299 4.79099L83.0239 82.383L87.0142 82.661ZM90.4251 6.93H110.141V2.93H90.4251V6.93ZM108.151 4.73099L96.544 120.801L100.524 121.199L112.131 5.129L108.151 4.73099ZM98.5341 119H73.7301V123H98.5341V119ZM75.7199 120.799L67.9289 43.684L63.9492 44.086L71.7402 121.201L75.7199 120.799ZM67.9254 43.6513C67.7181 41.8893 67.5085 39.5889 67.2976 36.7413L63.3085 37.0367C63.5216 39.913 63.736 42.2767 63.9528 44.1187L67.9254 43.6513ZM67.298 36.7465C67.0862 33.7819 66.8744 30.711 66.6626 27.534L62.6715 27.8C62.8837 30.983 63.0959 34.0601 63.3081 37.0315L67.298 36.7465ZM66.6626 27.534C66.45 24.3443 66.237 21.5214 66.0235 19.0667L62.0386 19.4133C62.2491 21.8346 62.4601 24.6297 62.6715 27.8L66.6626 27.534ZM62.0329 19.1531C61.9278 21.5719 61.7698 24.365 61.5585 27.534L65.5496 27.8C65.7624 24.609 65.9223 21.7841 66.0292 19.3269L62.0329 19.1531ZM61.5585 27.534C61.3467 30.711 61.1349 33.7819 60.9231 36.7465L64.913 37.0315C65.1252 34.0601 65.3374 30.983 65.5496 27.8L61.5585 27.534ZM60.9235 36.7412C60.7126 39.5889 60.503 41.8893 60.2958 43.6513L64.2684 44.1187C64.4851 42.2767 64.6995 39.913 64.9126 37.0367L60.9235 36.7412ZM60.2943 43.6637L51.7083 120.779L55.6838 121.221L64.2698 44.1063L60.2943 43.6637ZM53.6961 119H28.7331V123H53.6961V119Z" fill="black" mask="url(#path-1-outside-1_75_60)"/>
</g>
<defs>
<filter id="filter0_d_75_60" x="16.921" y="4.93005" width="93.2201" height="117.07" filterUnits="userSpaceOnUse" color-interpolation-filters="sRGB">
<feFlood flood-opacity="0" result="BackgroundImageFix"/>
<feColorMatrix in="SourceAlpha" type="matrix" values="0 0 0 0 0 0 0 0 0 0 0 0 0 0 0 0 0 0 127 0" result="hardAlpha"/>
<feOffset dx="-1" dy="1"/>
<feComposite in2="hardAlpha" operator="out"/>
<feColorMatrix type="matrix" values="0 0 0 0 0.0937617 0 0 0 0 0.00840484 0 0 0 0 0.110833 0 0 0 1 0"/>
<feBlend mode="normal" in2="BackgroundImageFix" result="effect1_dropShadow_75_60"/>
<feBlend mode="normal" in="SourceGraphic" in2="effect1_dropShadow_75_60" result="shape"/>
</filter>
</defs>
</svg>
